<svg xmlns="http://www.w3.org/2000/svg" viewBox="4.2818922996521 2.5 91.43641662597656 95.00004577636719"><g><path d="M50.005 9.254h-34.22l4.413-4.492A7.558 7.558 0 0 1 25.59 2.5h48.83c2.028 0 3.971.815 5.393 2.262l4.411 4.492zm42.922 84.563A11.096 11.096 0 0 1 84.67 97.5H15.342c-6.091.018-11.043-4.906-11.06-10.997-.002-.45.024-.9.078-1.346l5.852-62.364a7.558 7.558 0 0 1 7.525-6.852h64.535c3.901 0 7.161 2.97 7.525 6.853l5.853 62.43a11.107 11.107 0 0 1-2.723 8.593zM76.512 33.314a4.597 4.597 0 1 0-9.193 0v4.903c-.004 9.562-7.759 17.31-17.32 17.307-9.557-.004-17.304-7.75-17.307-17.307v-4.903a4.597 4.597 0 0 0-9.193 0v4.903c.001 14.64 11.87 26.505 26.51 26.504 14.636-.002 26.5-11.867 26.503-26.504v-4.903z" fill="#848484" opacity="1" data-original="#000000"></path></g></svg>