<svg xmlns="http://www.w3.org/2000/svg" viewBox="0 41.922462463378906 612 528.155517578125"><g><g fill-rule="evenodd" clip-rule="evenodd"><path d="M315.493 229.327v-82.141l-52.898-21.892a19.97 19.97 0 0 0-15.267 0c-22.764 9.426-90.356 37.399-118.316 48.973a19.95 19.95 0 0 0-12.326 18.44v29.908a19.947 19.947 0 0 1-12.326 18.433l-92.033 38.097A19.95 19.95 0 0 0 0 297.585v272.493h118.322V305.375a39.9 39.9 0 0 1 24.646-36.873l118.322-48.973a39.86 39.86 0 0 1 30.527 0zM393.889 261.776a13.306 13.306 0 0 1 12.652-9.193h31.784a13.3 13.3 0 0 1 13.305 13.304v36.72a13.299 13.299 0 0 1-13.305 13.304h-3.539v254.166H612V110.852a19.95 19.95 0 0 0-12.326-18.44c-27.959-11.575-95.552-39.554-118.316-48.973a19.97 19.97 0 0 0-15.267 0c-22.77 9.419-90.356 37.399-118.322 48.973a19.954 19.954 0 0 0-12.32 18.44v126.731zm160.324 4.111a13.309 13.309 0 0 0-13.304-13.304h-31.791a13.309 13.309 0 0 0-13.304 13.304v36.72a13.309 13.309 0 0 0 13.304 13.304h31.791a13.309 13.309 0 0 0 13.304-13.304v-36.72zM451.629 147.119a13.299 13.299 0 0 0-13.305-13.304H406.54a13.309 13.309 0 0 0-13.304 13.304v36.72a13.309 13.309 0 0 0 13.304 13.304h31.784a13.3 13.3 0 0 0 13.305-13.304v-36.72zm102.584 0a13.309 13.309 0 0 0-13.304-13.304h-31.791a13.309 13.309 0 0 0-13.304 13.304v36.72a13.309 13.309 0 0 0 13.304 13.304h31.791a13.309 13.309 0 0 0 13.304-13.304v-36.72z" fill="#ffbe5a" opacity="1" data-original="#000000" class=""></path><path d="M414.83 305.375a19.947 19.947 0 0 0-12.326-18.433c-27.959-11.575-95.552-39.554-118.316-48.973a19.907 19.907 0 0 0-15.267 0c-22.77 9.419-90.356 37.399-118.322 48.973a19.952 19.952 0 0 0-12.32 18.433v264.703H414.83zM254.459 460.417a13.28 13.28 0 0 0-3.898-9.406 13.296 13.296 0 0 0-9.406-3.898h-31.784a13.309 13.309 0 0 0-13.304 13.304v36.72a13.309 13.309 0 0 0 13.304 13.304h31.784c3.532 0 6.912-1.404 9.406-3.898a13.283 13.283 0 0 0 3.898-9.406v-36.72zm102.576 0a13.299 13.299 0 0 0-13.305-13.304h-31.784a13.309 13.309 0 0 0-13.304 13.304v36.72a13.309 13.309 0 0 0 13.304 13.304h31.784a13.3 13.3 0 0 0 13.305-13.304v-36.72zM254.459 341.649a13.27 13.27 0 0 0-3.898-9.406 13.296 13.296 0 0 0-9.406-3.898h-31.784a13.309 13.309 0 0 0-13.304 13.304v36.713a13.3 13.3 0 0 0 13.304 13.305h31.784c3.532 0 6.912-1.397 9.406-3.892a13.287 13.287 0 0 0 3.898-9.413v-36.713zm102.576 0c0-3.532-1.397-6.912-3.892-9.406s-5.881-3.898-9.413-3.898h-31.784a13.309 13.309 0 0 0-13.304 13.304v36.713a13.3 13.3 0 0 0 13.304 13.305h31.784c3.532 0 6.918-1.397 9.413-3.892s3.892-5.881 3.892-9.413v-36.713z" fill="#ffbe5a" opacity="1" data-original="#000000" class=""></path></g></g></svg>