<svg xmlns="http://www.w3.org/2000/svg" xmlns:v="https://svgstorm.com"
viewBox = "0 0 1050 525"
width="1050"
height="525">
<g fill="None" fill-opacity="0.0" stroke="#000000" stroke-opacity="0.00" stroke-width="0.3"><path d="
M 0.00 525.00 
L 1050.00 525.00
L 1050.00 0.00
L 0.00 0.00
L 0.00 525.00
M 685.00 437.00 
C 697.17 430.46 705.79 419.36 715.25 409.25 C 724.71 399.14 733.16 388.58 741.92 377.92 C 750.68 367.25 759.76 356.16 768.25 345.25 C 776.74 334.33 784.91 323.36 793.30 312.30 C 801.70 301.25 810.75 290.30 819.25 279.25 C 827.75 268.20 835.70 257.20 843.92 245.92 C 852.14 234.64 860.55 222.88 868.30 211.30 C 876.05 199.73 884.60 188.92 892.25 177.25 C 899.91 165.59 908.35 153.80 916.25 142.25 C 924.15 130.71 931.70 119.20 939.75 107.75 C 947.80 96.31 955.45 83.99 963.75 72.75 C 972.06 61.52 978.42 48.83 986.92 37.92 C 995.42 27.00 1001.99 11.75 1014.00 6.00
C 1013.22 30.45 1002.02 55.28 993.03 77.02 C 984.03 98.77 973.31 119.22 962.70 139.70 C 952.08 160.17 941.70 179.68 930.23 199.23 C 918.75 218.78 906.92 237.91 894.70 256.70 C 882.47 275.49 870.01 293.05 857.25 311.25 C 844.48 329.45 831.87 347.94 818.75 365.75 C 805.62 383.56 792.20 401.15 778.08 418.08 C 763.97 435.02 749.87 450.57 733.25 465.25 C 716.63 479.93 694.59 500.03 670.78 492.22 C 646.97 484.41 637.68 465.28 628.69 442.31 C 619.71 419.33 615.67 392.24 612.00 366.00 C 608.33 339.76 606.06 308.39 606.00 280.00 C 605.94 251.61 606.55 217.85 609.00 190.00 C 611.45 162.15 616.23 134.81 619.78 107.78 C 623.33 80.75 630.41 57.17 634.78 30.78 C 639.14 4.39 679.98 -3.85 683.33 25.67 C 686.68 55.20 677.64 79.09 674.00 107.00 C 670.37 134.91 666.48 161.77 664.00 190.00 C 661.52 218.23 659.24 247.76 659.80 276.25 C 660.36 304.73 660.24 337.97 664.00 365.00 C 667.76 392.03 669.13 414.83 685.00 437.00
M 292.00 46.00 
C 325.71 62.94 360.25 80.98 391.25 102.75 C 422.25 124.53 450.33 143.71 476.75 173.25 C 503.18 202.79 524.69 236.54 529.98 277.02 C 535.27 317.51 519.35 362.12 490.75 391.75 C 462.15 421.38 435.42 439.56 396.98 454.98 C 358.53 470.39 319.11 483.78 275.93 489.93 C 232.75 496.08 174.59 501.86 130.00 493.00
C 138.01 478.33 158.26 478.11 174.22 473.22 C 190.18 468.34 210.54 466.52 227.01 462.01 C 243.47 457.50 262.47 453.75 278.68 448.68 C 294.89 443.60 311.48 438.97 327.02 433.02 C 342.57 427.08 358.00 420.76 372.69 413.69 C 387.39 406.63 400.40 399.60 413.70 390.70 C 426.99 381.79 437.27 372.72 448.75 360.75 C 460.23 348.79 466.98 336.59 472.98 320.98 C 478.97 305.37 478.86 281.42 473.22 265.78 C 467.59 250.13 460.47 237.00 450.75 224.25 C 441.02 211.51 431.32 201.31 419.75 190.25 C 408.19 179.19 397.28 170.59 384.75 161.25 C 372.23 151.90 359.55 143.04 346.30 134.70 C 333.05 126.36 319.90 118.40 305.92 111.08 C 291.95 103.76 277.26 95.99 263.00 89.00
C 256.24 98.78 249.15 107.49 242.23 117.23 C 235.31 126.97 228.35 136.63 221.75 146.75 C 215.14 156.86 209.12 167.48 203.08 178.08 C 197.04 188.67 190.51 199.03 185.08 210.08 C 179.65 221.12 173.61 232.03 168.23 243.23 C 162.85 254.43 158.07 265.54 153.08 277.08 C 148.08 288.61 142.98 300.41 138.22 312.22 C 133.47 324.04 129.15 336.62 124.68 348.68 C 120.21 360.74 115.69 373.40 111.68 385.68 C 107.67 397.96 102.11 410.52 99.02 423.02 C 95.93 435.53 88.89 446.14 85.23 458.23 C 81.57 470.32 73.56 481.25 70.23 493.23 C 66.90 505.21 53.71 521.84 51.22 503.78 C 48.73 485.71 51.69 471.84 53.00 456.00 C 54.30 440.15 57.00 426.70 59.00 412.00 C 60.99 397.30 64.80 385.48 67.78 371.78 C 70.76 358.08 74.29 344.99 77.99 331.99 C 81.69 318.99 86.98 307.33 90.78 294.78 C 94.57 282.22 100.08 270.66 104.77 258.77 C 109.46 246.88 114.49 235.24 119.92 223.92 C 125.36 212.61 130.13 201.87 135.92 190.92 C 141.72 179.98 147.87 169.54 153.92 158.92 C 159.97 148.30 166.41 138.10 172.77 127.77 C 179.13 117.44 185.80 107.50 192.30 97.30 C 198.81 87.11 206.72 77.71 212.00 67.00
C 192.13 66.04 162.80 41.50 179.77 20.77 C 196.74 0.04 225.72 15.52 245.00 22.00
C 256.65 -10.48 310.72 17.01 292.00 46.00 Z"/>
</g>
<g fill="None" fill-opacity="0.0" stroke="#FFBE5A" stroke-opacity="0.98" stroke-width="0.3"><path d="
M 685.00 437.00 
C 669.13 414.83 667.76 392.03 664.00 365.00 C 660.24 337.97 660.36 304.73 659.80 276.25 C 659.24 247.76 661.52 218.23 664.00 190.00 C 666.48 161.77 670.37 134.91 674.00 107.00 C 677.64 79.09 686.68 55.20 683.33 25.67 C 679.98 -3.85 639.14 4.39 634.78 30.78 C 630.41 57.17 623.33 80.75 619.78 107.78 C 616.23 134.81 611.45 162.15 609.00 190.00 C 606.55 217.85 605.94 251.61 606.00 280.00 C 606.06 308.39 608.33 339.76 612.00 366.00 C 615.67 392.24 619.71 419.33 628.69 442.31 C 637.68 465.28 646.97 484.41 670.78 492.22 C 694.59 500.03 716.63 479.93 733.25 465.25 C 749.87 450.57 763.97 435.02 778.08 418.08 C 792.20 401.15 805.62 383.56 818.75 365.75 C 831.87 347.94 844.48 329.45 857.25 311.25 C 870.01 293.05 882.47 275.49 894.70 256.70 C 906.92 237.91 918.75 218.78 930.23 199.23 C 941.70 179.68 952.08 160.17 962.70 139.70 C 973.31 119.22 984.03 98.77 993.03 77.02 C 1002.02 55.28 1013.22 30.45 1014.00 6.00
C 1001.99 11.75 995.42 27.00 986.92 37.92 C 978.42 48.83 972.06 61.52 963.75 72.75 C 955.45 83.99 947.80 96.31 939.75 107.75 C 931.70 119.20 924.15 130.71 916.25 142.25 C 908.35 153.80 899.91 165.59 892.25 177.25 C 884.60 188.92 876.05 199.73 868.30 211.30 C 860.55 222.88 852.14 234.64 843.92 245.92 C 835.70 257.20 827.75 268.20 819.25 279.25 C 810.75 290.30 801.70 301.25 793.30 312.30 C 784.91 323.36 776.74 334.33 768.25 345.25 C 759.76 356.16 750.68 367.25 741.92 377.92 C 733.16 388.58 724.71 399.14 715.25 409.25 C 705.79 419.36 697.17 430.46 685.00 437.00 Z"/>
</g>
<g fill="None" fill-opacity="0.0" stroke="#FFBE5A" stroke-opacity="0.98" stroke-width="0.3"><path d="
M 292.00 46.00 
C 310.72 17.01 256.65 -10.48 245.00 22.00
C 225.72 15.52 196.74 0.04 179.77 20.77 C 162.80 41.50 192.13 66.04 212.00 67.00
C 206.72 77.71 198.81 87.11 192.30 97.30 C 185.80 107.50 179.13 117.44 172.77 127.77 C 166.41 138.10 159.97 148.30 153.92 158.92 C 147.87 169.54 141.72 179.98 135.92 190.92 C 130.13 201.87 125.36 212.61 119.92 223.92 C 114.49 235.24 109.46 246.88 104.77 258.77 C 100.08 270.66 94.57 282.22 90.78 294.78 C 86.98 307.33 81.69 318.99 77.99 331.99 C 74.29 344.99 70.76 358.08 67.78 371.78 C 64.80 385.48 60.99 397.30 59.00 412.00 C 57.00 426.70 54.30 440.15 53.00 456.00 C 51.69 471.84 48.73 485.71 51.22 503.78 C 53.71 521.84 66.90 505.21 70.23 493.23 C 73.56 481.25 81.57 470.32 85.23 458.23 C 88.89 446.14 95.93 435.53 99.02 423.02 C 102.11 410.52 107.67 397.96 111.68 385.68 C 115.69 373.40 120.21 360.74 124.68 348.68 C 129.15 336.62 133.47 324.04 138.22 312.22 C 142.98 300.41 148.08 288.61 153.08 277.08 C 158.07 265.54 162.85 254.43 168.23 243.23 C 173.61 232.03 179.65 221.12 185.08 210.08 C 190.51 199.03 197.04 188.67 203.08 178.08 C 209.12 167.48 215.14 156.86 221.75 146.75 C 228.35 136.63 235.31 126.97 242.23 117.23 C 249.15 107.49 256.24 98.78 263.00 89.00
C 277.26 95.99 291.95 103.76 305.92 111.08 C 319.90 118.40 333.05 126.36 346.30 134.70 C 359.55 143.04 372.23 151.90 384.75 161.25 C 397.28 170.59 408.19 179.19 419.75 190.25 C 431.32 201.31 441.02 211.51 450.75 224.25 C 460.47 237.00 467.59 250.13 473.22 265.78 C 478.86 281.42 478.97 305.37 472.98 320.98 C 466.98 336.59 460.23 348.79 448.75 360.75 C 437.27 372.72 426.99 381.79 413.70 390.70 C 400.40 399.60 387.39 406.63 372.69 413.69 C 358.00 420.76 342.57 427.08 327.02 433.02 C 311.48 438.97 294.89 443.60 278.68 448.68 C 262.47 453.75 243.47 457.50 227.01 462.01 C 210.54 466.52 190.18 468.34 174.22 473.22 C 158.26 478.11 138.01 478.33 130.00 493.00
C 174.59 501.86 232.75 496.08 275.93 489.93 C 319.11 483.78 358.53 470.39 396.98 454.98 C 435.42 439.56 462.15 421.38 490.75 391.75 C 519.35 362.12 535.27 317.51 529.98 277.02 C 524.69 236.54 503.18 202.79 476.75 173.25 C 450.33 143.71 422.25 124.53 391.25 102.75 C 360.25 80.98 325.71 62.94 292.00 46.00 Z"/>
</g>
<g fill="#000000" fill-opacity="0.00" stroke="None">
<path d="
M 0.00 525.00 
L 1050.00 525.00
L 1050.00 0.00
L 0.00 0.00
L 0.00 525.00
M 685.00 437.00 
C 697.17 430.46 705.79 419.36 715.25 409.25 C 724.71 399.14 733.16 388.58 741.92 377.92 C 750.68 367.25 759.76 356.16 768.25 345.25 C 776.74 334.33 784.91 323.36 793.30 312.30 C 801.70 301.25 810.75 290.30 819.25 279.25 C 827.75 268.20 835.70 257.20 843.92 245.92 C 852.14 234.64 860.55 222.88 868.30 211.30 C 876.05 199.73 884.60 188.92 892.25 177.25 C 899.91 165.59 908.35 153.80 916.25 142.25 C 924.15 130.71 931.70 119.20 939.75 107.75 C 947.80 96.31 955.45 83.99 963.75 72.75 C 972.06 61.52 978.42 48.83 986.92 37.92 C 995.42 27.00 1001.99 11.75 1014.00 6.00
C 1013.22 30.45 1002.02 55.28 993.03 77.02 C 984.03 98.77 973.31 119.22 962.70 139.70 C 952.08 160.17 941.70 179.68 930.23 199.23 C 918.75 218.78 906.92 237.91 894.70 256.70 C 882.47 275.49 870.01 293.05 857.25 311.25 C 844.48 329.45 831.87 347.94 818.75 365.75 C 805.62 383.56 792.20 401.15 778.08 418.08 C 763.97 435.02 749.87 450.57 733.25 465.25 C 716.63 479.93 694.59 500.03 670.78 492.22 C 646.97 484.41 637.68 465.28 628.69 442.31 C 619.71 419.33 615.67 392.24 612.00 366.00 C 608.33 339.76 606.06 308.39 606.00 280.00 C 605.94 251.61 606.55 217.85 609.00 190.00 C 611.45 162.15 616.23 134.81 619.78 107.78 C 623.33 80.75 630.41 57.17 634.78 30.78 C 639.14 4.39 679.98 -3.85 683.33 25.67 C 686.68 55.20 677.64 79.09 674.00 107.00 C 670.37 134.91 666.48 161.77 664.00 190.00 C 661.52 218.23 659.24 247.76 659.80 276.25 C 660.36 304.73 660.24 337.97 664.00 365.00 C 667.76 392.03 669.13 414.83 685.00 437.00
M 292.00 46.00 
C 325.71 62.94 360.25 80.98 391.25 102.75 C 422.25 124.53 450.33 143.71 476.75 173.25 C 503.18 202.79 524.69 236.54 529.98 277.02 C 535.27 317.51 519.35 362.12 490.75 391.75 C 462.15 421.38 435.42 439.56 396.98 454.98 C 358.53 470.39 319.11 483.78 275.93 489.93 C 232.75 496.08 174.59 501.86 130.00 493.00
C 138.01 478.33 158.26 478.11 174.22 473.22 C 190.18 468.34 210.54 466.52 227.01 462.01 C 243.47 457.50 262.47 453.75 278.68 448.68 C 294.89 443.60 311.48 438.97 327.02 433.02 C 342.57 427.08 358.00 420.76 372.69 413.69 C 387.39 406.63 400.40 399.60 413.70 390.70 C 426.99 381.79 437.27 372.72 448.75 360.75 C 460.23 348.79 466.98 336.59 472.98 320.98 C 478.97 305.37 478.86 281.42 473.22 265.78 C 467.59 250.13 460.47 237.00 450.75 224.25 C 441.02 211.51 431.32 201.31 419.75 190.25 C 408.19 179.19 397.28 170.59 384.75 161.25 C 372.23 151.90 359.55 143.04 346.30 134.70 C 333.05 126.36 319.90 118.40 305.92 111.08 C 291.95 103.76 277.26 95.99 263.00 89.00
C 256.24 98.78 249.15 107.49 242.23 117.23 C 235.31 126.97 228.35 136.63 221.75 146.75 C 215.14 156.86 209.12 167.48 203.08 178.08 C 197.04 188.67 190.51 199.03 185.08 210.08 C 179.65 221.12 173.61 232.03 168.23 243.23 C 162.85 254.43 158.07 265.54 153.08 277.08 C 148.08 288.61 142.98 300.41 138.22 312.22 C 133.47 324.04 129.15 336.62 124.68 348.68 C 120.21 360.74 115.69 373.40 111.68 385.68 C 107.67 397.96 102.11 410.52 99.02 423.02 C 95.93 435.53 88.89 446.14 85.23 458.23 C 81.57 470.32 73.56 481.25 70.23 493.23 C 66.90 505.21 53.71 521.84 51.22 503.78 C 48.73 485.71 51.69 471.84 53.00 456.00 C 54.30 440.15 57.00 426.70 59.00 412.00 C 60.99 397.30 64.80 385.48 67.78 371.78 C 70.76 358.08 74.29 344.99 77.99 331.99 C 81.69 318.99 86.98 307.33 90.78 294.78 C 94.57 282.22 100.08 270.66 104.77 258.77 C 109.46 246.88 114.49 235.24 119.92 223.92 C 125.36 212.61 130.13 201.87 135.92 190.92 C 141.72 179.98 147.87 169.54 153.92 158.92 C 159.97 148.30 166.41 138.10 172.77 127.77 C 179.13 117.44 185.80 107.50 192.30 97.30 C 198.81 87.11 206.72 77.71 212.00 67.00
C 192.13 66.04 162.80 41.50 179.77 20.77 C 196.74 0.04 225.72 15.52 245.00 22.00
C 256.65 -10.48 310.72 17.01 292.00 46.00 Z"/>
</g>
<g fill="#FFBE5A" fill-opacity="0.98" stroke="None">
<path d="
M 685.00 437.00 
C 669.13 414.83 667.76 392.03 664.00 365.00 C 660.24 337.97 660.36 304.73 659.80 276.25 C 659.24 247.76 661.52 218.23 664.00 190.00 C 666.48 161.77 670.37 134.91 674.00 107.00 C 677.64 79.09 686.68 55.20 683.33 25.67 C 679.98 -3.85 639.14 4.39 634.78 30.78 C 630.41 57.17 623.33 80.75 619.78 107.78 C 616.23 134.81 611.45 162.15 609.00 190.00 C 606.55 217.85 605.94 251.61 606.00 280.00 C 606.06 308.39 608.33 339.76 612.00 366.00 C 615.67 392.24 619.71 419.33 628.69 442.31 C 637.68 465.28 646.97 484.41 670.78 492.22 C 694.59 500.03 716.63 479.93 733.25 465.25 C 749.87 450.57 763.97 435.02 778.08 418.08 C 792.20 401.15 805.62 383.56 818.75 365.75 C 831.87 347.94 844.48 329.45 857.25 311.25 C 870.01 293.05 882.47 275.49 894.70 256.70 C 906.92 237.91 918.75 218.78 930.23 199.23 C 941.70 179.68 952.08 160.17 962.70 139.70 C 973.31 119.22 984.03 98.77 993.03 77.02 C 1002.02 55.28 1013.22 30.45 1014.00 6.00
C 1001.99 11.75 995.42 27.00 986.92 37.92 C 978.42 48.83 972.06 61.52 963.75 72.75 C 955.45 83.99 947.80 96.31 939.75 107.75 C 931.70 119.20 924.15 130.71 916.25 142.25 C 908.35 153.80 899.91 165.59 892.25 177.25 C 884.60 188.92 876.05 199.73 868.30 211.30 C 860.55 222.88 852.14 234.64 843.92 245.92 C 835.70 257.20 827.75 268.20 819.25 279.25 C 810.75 290.30 801.70 301.25 793.30 312.30 C 784.91 323.36 776.74 334.33 768.25 345.25 C 759.76 356.16 750.68 367.25 741.92 377.92 C 733.16 388.58 724.71 399.14 715.25 409.25 C 705.79 419.36 697.17 430.46 685.00 437.00 Z"/>
</g>
<g fill="#FFBE5A" fill-opacity="0.98" stroke="None">
<path d="
M 292.00 46.00 
C 310.72 17.01 256.65 -10.48 245.00 22.00
C 225.72 15.52 196.74 0.04 179.77 20.77 C 162.80 41.50 192.13 66.04 212.00 67.00
C 206.72 77.71 198.81 87.11 192.30 97.30 C 185.80 107.50 179.13 117.44 172.77 127.77 C 166.41 138.10 159.97 148.30 153.92 158.92 C 147.87 169.54 141.72 179.98 135.92 190.92 C 130.13 201.87 125.36 212.61 119.92 223.92 C 114.49 235.24 109.46 246.88 104.77 258.77 C 100.08 270.66 94.57 282.22 90.78 294.78 C 86.98 307.33 81.69 318.99 77.99 331.99 C 74.29 344.99 70.76 358.08 67.78 371.78 C 64.80 385.48 60.99 397.30 59.00 412.00 C 57.00 426.70 54.30 440.15 53.00 456.00 C 51.69 471.84 48.73 485.71 51.22 503.78 C 53.71 521.84 66.90 505.21 70.23 493.23 C 73.56 481.25 81.57 470.32 85.23 458.23 C 88.89 446.14 95.93 435.53 99.02 423.02 C 102.11 410.52 107.67 397.96 111.68 385.68 C 115.69 373.40 120.21 360.74 124.68 348.68 C 129.15 336.62 133.47 324.04 138.22 312.22 C 142.98 300.41 148.08 288.61 153.08 277.08 C 158.07 265.54 162.85 254.43 168.23 243.23 C 173.61 232.03 179.65 221.12 185.08 210.08 C 190.51 199.03 197.04 188.67 203.08 178.08 C 209.12 167.48 215.14 156.86 221.75 146.75 C 228.35 136.63 235.31 126.97 242.23 117.23 C 249.15 107.49 256.24 98.78 263.00 89.00
C 277.26 95.99 291.95 103.76 305.92 111.08 C 319.90 118.40 333.05 126.36 346.30 134.70 C 359.55 143.04 372.23 151.90 384.75 161.25 C 397.28 170.59 408.19 179.19 419.75 190.25 C 431.32 201.31 441.02 211.51 450.75 224.25 C 460.47 237.00 467.59 250.13 473.22 265.78 C 478.86 281.42 478.97 305.37 472.98 320.98 C 466.98 336.59 460.23 348.79 448.75 360.75 C 437.27 372.72 426.99 381.79 413.70 390.70 C 400.40 399.60 387.39 406.63 372.69 413.69 C 358.00 420.76 342.57 427.08 327.02 433.02 C 311.48 438.97 294.89 443.60 278.68 448.68 C 262.47 453.75 243.47 457.50 227.01 462.01 C 210.54 466.52 190.18 468.34 174.22 473.22 C 158.26 478.11 138.01 478.33 130.00 493.00
C 174.59 501.86 232.75 496.08 275.93 489.93 C 319.11 483.78 358.53 470.39 396.98 454.98 C 435.42 439.56 462.15 421.38 490.75 391.75 C 519.35 362.12 535.27 317.51 529.98 277.02 C 524.69 236.54 503.18 202.79 476.75 173.25 C 450.33 143.71 422.25 124.53 391.25 102.75 C 360.25 80.98 325.71 62.94 292.00 46.00 Z"/>
</g>
</svg>