<svg xmlns="http://www.w3.org/2000/svg" xmlns:v="https://svgstorm.com"
viewBox = "0 0 672 747"
width="672"
height="747">
<g fill="None" fill-opacity="0.0" stroke="#000000" stroke-opacity="0.00" stroke-width="0.3"><path d="
M 0.00 403.00 
C 0.50 403.00 1.00 403.00 1.00 403.00
C 1.00 374.04 12.32 341.80 23.31 316.31 C 34.29 290.81 48.63 270.39 66.75 249.75 C 84.88 229.11 102.17 213.46 125.23 199.23 C 148.29 185.00 175.20 172.33 202.07 166.07 C 228.94 159.82 269.58 150.82 294.23 166.77 C 318.88 182.72 313.01 228.54 285.31 236.30 C 257.60 244.07 220.52 241.16 194.92 254.92 C 169.33 268.69 150.06 278.45 130.25 300.25 C 110.44 322.05 101.31 342.58 90.22 369.22 C 79.14 395.87 89.04 434.64 68.25 457.25 C 47.45 479.85 6.36 465.00 0.00 437.00
L 0.00 747.00
L 672.00 747.00
L 672.00 344.00
C 668.80 372.00 660.78 404.70 649.08 430.08 C 637.37 455.45 624.08 476.08 605.75 496.75 C 587.43 517.42 570.44 533.04 547.30 547.30 C 524.17 561.56 497.68 574.47 470.78 580.78 C 443.87 587.09 402.31 596.21 377.77 580.23 C 353.23 564.25 358.68 519.25 386.08 511.08 C 413.47 502.90 451.52 505.89 477.08 492.08 C 502.63 478.26 521.96 468.57 541.75 446.75 C 561.55 424.93 570.70 404.43 581.78 377.78 C 592.85 351.12 582.96 312.37 603.75 289.75 C 624.54 267.14 665.67 281.96 672.00 310.00
L 672.00 0.00
L 0.00 0.00
L 0.00 403.00
M 303.00 37.00 
C 329.59 39.57 361.33 47.02 385.68 57.32 C 410.03 67.62 430.51 79.87 450.75 96.25 C 470.99 112.62 485.77 127.95 500.77 149.23 C 515.77 170.51 528.05 191.49 536.78 217.22 C 545.50 242.96 552.16 276.01 552.00 305.00 C 551.84 333.99 522.34 356.19 493.77 343.23 C 465.21 330.27 470.97 293.64 466.01 267.99 C 461.04 242.35 449.59 216.52 434.08 195.92 C 418.57 175.32 403.04 159.16 380.75 146.25 C 358.46 133.34 329.86 120.43 303.00 120.00 C 276.14 119.57 241.43 113.34 241.02 78.98 C 240.62 44.61 273.71 34.17 303.00 37.00
M 169.00 400.00 
C 202.46 405.43 201.79 441.84 204.00 468.00 C 206.20 494.17 218.96 521.65 232.75 543.25 C 246.55 564.84 262.21 581.19 283.70 595.30 C 305.18 609.42 331.04 622.63 357.22 625.78 C 383.41 628.93 419.66 625.37 428.92 657.08 C 438.19 688.78 411.26 711.54 382.00 710.00 C 352.74 708.46 321.73 702.95 295.92 693.08 C 270.12 683.20 250.10 672.29 228.75 656.25 C 207.41 640.21 193.44 626.20 176.75 605.25 C 160.05 584.31 150.20 564.10 139.07 538.93 C 127.95 513.75 124.17 482.52 121.00 454.00 C 117.83 425.48 135.15 394.50 169.00 400.00 Z"/>
</g>
<g fill="None" fill-opacity="0.0" stroke="#FEBE51" stroke-opacity="0.98" stroke-width="0.3"><path d="
M 303.00 37.00 
C 273.71 34.17 240.62 44.61 241.02 78.98 C 241.43 113.34 276.14 119.57 303.00 120.00 C 329.86 120.43 358.46 133.34 380.75 146.25 C 403.04 159.16 418.57 175.32 434.08 195.92 C 449.59 216.52 461.04 242.35 466.01 267.99 C 470.97 293.64 465.21 330.27 493.77 343.23 C 522.34 356.19 551.84 333.99 552.00 305.00 C 552.16 276.01 545.50 242.96 536.78 217.22 C 528.05 191.49 515.77 170.51 500.77 149.23 C 485.77 127.95 470.99 112.62 450.75 96.25 C 430.51 79.87 410.03 67.62 385.68 57.32 C 361.33 47.02 329.59 39.57 303.00 37.00 Z"/>
</g>
<g fill="None" fill-opacity="0.0" stroke="#FEBE50" stroke-opacity="0.98" stroke-width="0.3"><path d="
M 1.00 403.00 
C 1.00 405.84 1.79 409.98 0.00 412.00
L 0.00 437.00
C 6.36 465.00 47.45 479.85 68.25 457.25 C 89.04 434.64 79.14 395.87 90.22 369.22 C 101.31 342.58 110.44 322.05 130.25 300.25 C 150.06 278.45 169.33 268.69 194.92 254.92 C 220.52 241.16 257.60 244.07 285.31 236.30 C 313.01 228.54 318.88 182.72 294.23 166.77 C 269.58 150.82 228.94 159.82 202.07 166.07 C 175.20 172.33 148.29 185.00 125.23 199.23 C 102.17 213.46 84.88 229.11 66.75 249.75 C 48.63 270.39 34.29 290.81 23.31 316.31 C 12.32 341.80 1.00 374.04 1.00 403.00 Z"/>
</g>
<g fill="None" fill-opacity="0.0" stroke="#FEBE51" stroke-opacity="0.98" stroke-width="0.3"><path d="
M 672.00 344.00 
L 672.00 310.00
C 665.67 281.96 624.54 267.14 603.75 289.75 C 582.96 312.37 592.85 351.12 581.78 377.78 C 570.70 404.43 561.55 424.93 541.75 446.75 C 521.96 468.57 502.63 478.26 477.08 492.08 C 451.52 505.89 413.47 502.90 386.08 511.08 C 358.68 519.25 353.23 564.25 377.77 580.23 C 402.31 596.21 443.87 587.09 470.78 580.78 C 497.68 574.47 524.17 561.56 547.30 547.30 C 570.44 533.04 587.43 517.42 605.75 496.75 C 624.08 476.08 637.37 455.45 649.08 430.08 C 660.78 404.70 668.80 372.00 672.00 344.00 Z"/>
</g>
<g fill="None" fill-opacity="0.0" stroke="#FEBE50" stroke-opacity="0.98" stroke-width="0.3"><path d="
M 169.00 400.00 
C 135.15 394.50 117.83 425.48 121.00 454.00 C 124.17 482.52 127.95 513.75 139.07 538.93 C 150.20 564.10 160.05 584.31 176.75 605.25 C 193.44 626.20 207.41 640.21 228.75 656.25 C 250.10 672.29 270.12 683.20 295.92 693.08 C 321.73 702.95 352.74 708.46 382.00 710.00 C 411.26 711.54 438.19 688.78 428.92 657.08 C 419.66 625.37 383.41 628.93 357.22 625.78 C 331.04 622.63 305.18 609.42 283.70 595.30 C 262.21 581.19 246.55 564.84 232.75 543.25 C 218.96 521.65 206.20 494.17 204.00 468.00 C 201.79 441.84 202.46 405.43 169.00 400.00 Z"/>
</g>
<g fill="None" fill-opacity="0.0" stroke="#FFC153" stroke-opacity="0.28" stroke-width="0.3"><path d="
M 0.00 412.00 
C 1.79 409.98 1.00 405.84 1.00 403.00
C 1.00 403.00 0.50 403.00 0.00 403.00
L 0.00 412.00 Z"/>
</g>
<g fill="#000000" fill-opacity="0.00" stroke="None">
<path d="
M 0.00 403.00 
C 0.50 403.00 1.00 403.00 1.00 403.00
C 1.00 374.04 12.32 341.80 23.31 316.31 C 34.29 290.81 48.63 270.39 66.75 249.75 C 84.88 229.11 102.17 213.46 125.23 199.23 C 148.29 185.00 175.20 172.33 202.07 166.07 C 228.94 159.82 269.58 150.82 294.23 166.77 C 318.88 182.72 313.01 228.54 285.31 236.30 C 257.60 244.07 220.52 241.16 194.92 254.92 C 169.33 268.69 150.06 278.45 130.25 300.25 C 110.44 322.05 101.31 342.58 90.22 369.22 C 79.14 395.87 89.04 434.64 68.25 457.25 C 47.45 479.85 6.36 465.00 0.00 437.00
L 0.00 747.00
L 672.00 747.00
L 672.00 344.00
C 668.80 372.00 660.78 404.70 649.08 430.08 C 637.37 455.45 624.08 476.08 605.75 496.75 C 587.43 517.42 570.44 533.04 547.30 547.30 C 524.17 561.56 497.68 574.47 470.78 580.78 C 443.87 587.09 402.31 596.21 377.77 580.23 C 353.23 564.25 358.68 519.25 386.08 511.08 C 413.47 502.90 451.52 505.89 477.08 492.08 C 502.63 478.26 521.96 468.57 541.75 446.75 C 561.55 424.93 570.70 404.43 581.78 377.78 C 592.85 351.12 582.96 312.37 603.75 289.75 C 624.54 267.14 665.67 281.96 672.00 310.00
L 672.00 0.00
L 0.00 0.00
L 0.00 403.00
M 303.00 37.00 
C 329.59 39.57 361.33 47.02 385.68 57.32 C 410.03 67.62 430.51 79.87 450.75 96.25 C 470.99 112.62 485.77 127.95 500.77 149.23 C 515.77 170.51 528.05 191.49 536.78 217.22 C 545.50 242.96 552.16 276.01 552.00 305.00 C 551.84 333.99 522.34 356.19 493.77 343.23 C 465.21 330.27 470.97 293.64 466.01 267.99 C 461.04 242.35 449.59 216.52 434.08 195.92 C 418.57 175.32 403.04 159.16 380.75 146.25 C 358.46 133.34 329.86 120.43 303.00 120.00 C 276.14 119.57 241.43 113.34 241.02 78.98 C 240.62 44.61 273.71 34.17 303.00 37.00
M 169.00 400.00 
C 202.46 405.43 201.79 441.84 204.00 468.00 C 206.20 494.17 218.96 521.65 232.75 543.25 C 246.55 564.84 262.21 581.19 283.70 595.30 C 305.18 609.42 331.04 622.63 357.22 625.78 C 383.41 628.93 419.66 625.37 428.92 657.08 C 438.19 688.78 411.26 711.54 382.00 710.00 C 352.74 708.46 321.73 702.95 295.92 693.08 C 270.12 683.20 250.10 672.29 228.75 656.25 C 207.41 640.21 193.44 626.20 176.75 605.25 C 160.05 584.31 150.20 564.10 139.07 538.93 C 127.95 513.75 124.17 482.52 121.00 454.00 C 117.83 425.48 135.15 394.50 169.00 400.00 Z"/>
</g>
<g fill="#FEBE51" fill-opacity="0.98" stroke="None">
<path d="
M 303.00 37.00 
C 273.71 34.17 240.62 44.61 241.02 78.98 C 241.43 113.34 276.14 119.57 303.00 120.00 C 329.86 120.43 358.46 133.34 380.75 146.25 C 403.04 159.16 418.57 175.32 434.08 195.92 C 449.59 216.52 461.04 242.35 466.01 267.99 C 470.97 293.64 465.21 330.27 493.77 343.23 C 522.34 356.19 551.84 333.99 552.00 305.00 C 552.16 276.01 545.50 242.96 536.78 217.22 C 528.05 191.49 515.77 170.51 500.77 149.23 C 485.77 127.95 470.99 112.62 450.75 96.25 C 430.51 79.87 410.03 67.62 385.68 57.32 C 361.33 47.02 329.59 39.57 303.00 37.00 Z"/>
</g>
<g fill="#FEBE50" fill-opacity="0.98" stroke="None">
<path d="
M 1.00 403.00 
C 1.00 405.84 1.79 409.98 0.00 412.00
L 0.00 437.00
C 6.36 465.00 47.45 479.85 68.25 457.25 C 89.04 434.64 79.14 395.87 90.22 369.22 C 101.31 342.58 110.44 322.05 130.25 300.25 C 150.06 278.45 169.33 268.69 194.92 254.92 C 220.52 241.16 257.60 244.07 285.31 236.30 C 313.01 228.54 318.88 182.72 294.23 166.77 C 269.58 150.82 228.94 159.82 202.07 166.07 C 175.20 172.33 148.29 185.00 125.23 199.23 C 102.17 213.46 84.88 229.11 66.75 249.75 C 48.63 270.39 34.29 290.81 23.31 316.31 C 12.32 341.80 1.00 374.04 1.00 403.00 Z"/>
</g>
<g fill="#FEBE51" fill-opacity="0.98" stroke="None">
<path d="
M 672.00 344.00 
L 672.00 310.00
C 665.67 281.96 624.54 267.14 603.75 289.75 C 582.96 312.37 592.85 351.12 581.78 377.78 C 570.70 404.43 561.55 424.93 541.75 446.75 C 521.96 468.57 502.63 478.26 477.08 492.08 C 451.52 505.89 413.47 502.90 386.08 511.08 C 358.68 519.25 353.23 564.25 377.77 580.23 C 402.31 596.21 443.87 587.09 470.78 580.78 C 497.68 574.47 524.17 561.56 547.30 547.30 C 570.44 533.04 587.43 517.42 605.75 496.75 C 624.08 476.08 637.37 455.45 649.08 430.08 C 660.78 404.70 668.80 372.00 672.00 344.00 Z"/>
</g>
<g fill="#FEBE50" fill-opacity="0.98" stroke="None">
<path d="
M 169.00 400.00 
C 135.15 394.50 117.83 425.48 121.00 454.00 C 124.17 482.52 127.95 513.75 139.07 538.93 C 150.20 564.10 160.05 584.31 176.75 605.25 C 193.44 626.20 207.41 640.21 228.75 656.25 C 250.10 672.29 270.12 683.20 295.92 693.08 C 321.73 702.95 352.74 708.46 382.00 710.00 C 411.26 711.54 438.19 688.78 428.92 657.08 C 419.66 625.37 383.41 628.93 357.22 625.78 C 331.04 622.63 305.18 609.42 283.70 595.30 C 262.21 581.19 246.55 564.84 232.75 543.25 C 218.96 521.65 206.20 494.17 204.00 468.00 C 201.79 441.84 202.46 405.43 169.00 400.00 Z"/>
</g>
<g fill="#FFC153" fill-opacity="0.28" stroke="None">
<path d="
M 0.00 412.00 
C 1.79 409.98 1.00 405.84 1.00 403.00
C 1.00 403.00 0.50 403.00 0.00 403.00
L 0.00 412.00 Z"/>
</g>
</svg>