<svg xmlns="http://www.w3.org/2000/svg" viewBox="-0.0005021095275878906 83.56549072265625 512.0001220703125 344.8680419921875"><g><path d="M139.083 105.036 122.006 87.96c-5.858-5.858-15.355-5.858-21.213 0l-96.4 96.4c-5.858 5.858-5.858 15.355 0 21.213l16.381 16.381 107.014-107.015a115.03 115.03 0 0 1 11.295-9.903zM231.9 283.997c-30.25 0-58.665-11.756-80.012-33.104-17.459-16.746-17.465-46.901-.007-63.648l72.307-72.307c.422-.422.85-.833 1.277-1.247-26.692-5.787-55.675 1.67-76.465 22.46L41.987 243.166l164.011 164.013c27.132 27.129 70.281 28.257 98.733 3.56 23.904-2.339 43.378-20.018 48.42-43.043 14.812-3.247 27.408-12.472 35.135-25.004l-84.451-84.452c-20.195 16.681-45.357 25.757-71.935 25.757zM507.607 184.359l-96.4-96.4c-5.858-5.858-15.355-5.858-21.213 0l-17.076 17.076a115.124 115.124 0 0 1 11.294 9.902l107.014 107.015 16.38-16.38c5.858-5.857 5.858-15.355.001-21.213z" fill="#ffffff" opacity="1" data-original="#000000" class=""></path><path d="m245.401 136.152-72.307 72.309c-5.859 5.858-5.851 15.363.008 21.221 32.422 32.422 85.176 32.422 117.597 0l13.502-13.502 96.4 96.4 69.413-69.413-107.015-107.015c-32.528-32.528-85.123-32.475-117.598 0z" fill="#ffffff" opacity="1" data-original="#000000" class=""></path></g></svg>