<svg xmlns="http://www.w3.org/2000/svg" viewBox="5 5 50 50"><g fill="#000"><path d="M18.369 36.493C18.127 34.414 18 32.238 18 30s.127-4.414.369-6.493c-4.406-1.06-8.398-2.563-11.011-4.108C5.848 22.617 5 26.209 5 30s.848 7.383 2.358 10.602c2.613-1.546 6.605-3.049 11.011-4.109zM22.732 6.08a25.054 25.054 0 0 0-13.377 9.822c2.151 1.255 5.526 2.563 9.346 3.542.736-5.271 2.065-10.008 4.031-13.364zM18.701 40.556c-3.819.979-7.194 2.287-9.346 3.542a25.049 25.049 0 0 0 13.377 9.822c-1.966-3.356-3.295-8.093-4.031-13.364zM30 39c-2.473 0-4.978.267-7.375.701C23.837 48.689 26.683 55 30 55c3.316 0 6.162-6.309 7.375-15.295C34.974 39.269 32.467 39 30 39zM41.631 36.493C41.873 34.414 42 32.238 42 30s-.127-4.414-.369-6.493c4.406-1.06 8.398-2.563 11.011-4.108C54.152 22.617 55 26.209 55 30s-.848 7.383-2.358 10.602c-2.613-1.546-6.605-3.049-11.011-4.109zM37.268 6.08a25.05 25.05 0 0 1 13.377 9.822c-2.151 1.255-5.526 2.563-9.346 3.542-.736-5.271-2.065-10.008-4.031-13.364zM41.299 40.556c3.819.979 7.194 2.287 9.346 3.542a25.045 25.045 0 0 1-13.377 9.822c1.966-3.356 3.295-8.093 4.031-13.364zM37.788 24.296C35.23 24.738 32.586 25 30 25s-5.23-.262-7.788-.704C22.074 26.129 22 28.037 22 30s.074 3.871.212 5.704C24.77 35.262 27.414 35 30 35s5.23.262 7.788.704C37.926 33.871 38 31.963 38 30s-.074-3.871-.212-5.704zM30 5c-3.317 0-6.163 6.311-7.375 15.299 2.397.434 4.902.701 7.375.701s4.978-.267 7.375-.701C36.163 11.311 33.317 5 30 5z" fill="#ffbe5a" opacity="1" data-original="#000000" class=""></path></g></svg>