<?xml version="1.0" encoding="UTF-8"?>
<svg id="_Слой_1" data-name="Слой 1" xmlns="http://www.w3.org/2000/svg" viewBox="0 0 624.94 197.55">
  <defs>
    <style>
      .cls-1 {
        fill: #fff;
        stroke-width: 0px;
      }
    </style>
  </defs>
  <g>
    <path class="cls-1" d="M117.19,68.55c0,5.9-1.21,11.23-3.64,15.98-2.43,4.75-5.7,8.98-9.82,12.67-4.12,3.7-8.91,6.88-14.36,9.53-5.45,2.65-11.13,4.85-17.02,6.6-5.9,1.75-11.83,3-17.78,3.75-5.95.75-11.53,1.07-16.72.98-6.4-.2-10.95-.58-13.65-1.12-2.7-.55-4.05-1.17-4.05-1.88,0-1,1.65-2.03,4.95-3.08,3.3-1.05,7.25-2.12,11.85-3.22,3.7-.8,7.85-1.82,12.45-3.08,4.6-1.25,9.27-2.72,14.02-4.42,4.75-1.7,9.38-3.62,13.88-5.78,4.5-2.15,8.5-4.58,12-7.28,3.5-2.7,6.32-5.62,8.48-8.77,2.15-3.15,3.22-6.62,3.22-10.42,0-3.3-.88-6.57-2.62-9.83-1.75-3.25-4.03-6.4-6.83-9.45-2.8-3.05-5.95-5.95-9.45-8.7-3.5-2.75-7.05-5.27-10.65-7.58-3.6-2.3-7.03-4.3-10.28-6-3.25-1.7-6.03-3.1-8.32-4.2-4.5,5.3-8.48,10.85-11.93,16.65-3.45,5.8-6.62,11.85-9.52,18.15-2.9,6.3-5.62,12.8-8.17,19.5-2.55,6.7-5.18,13.6-7.88,20.7-3.8,9.3-6.75,16.15-8.85,20.55-2.1,4.4-3.7,6.6-4.8,6.6-.7,0-1.18-.93-1.42-2.77-.25-1.85-.33-4.12-.23-6.83.1-2.7.3-5.5.6-8.4.3-2.9.6-5.4.9-7.5,1-6.4,2.55-13.07,4.65-20.02,2.1-6.95,4.65-14,7.65-21.15,3-7.15,6.42-14.3,10.27-21.45,3.85-7.15,8.12-14.02,12.83-20.62l-3.75-1.8c-.9-1.4-1.53-2.92-1.88-4.57-.35-1.65-.3-3.2.15-4.65.45-1.45,1.32-2.7,2.62-3.75,1.3-1.05,3.2-1.67,5.7-1.88.6.2,1.25.45,1.95.75.6.2,1.35.45,2.25.75.9.3,1.95.7,3.15,1.2l1.05-1.8c2.6-.6,5.15-.3,7.65.9,2.5,1.2,4.35,3.55,5.55,7.05l-.3.45c2.9,1.5,6.3,3.35,10.2,5.55,3.9,2.2,7.92,4.68,12.08,7.43,4.15,2.75,8.27,5.8,12.37,9.15,4.1,3.35,7.73,6.95,10.9,10.8,3.17,3.85,5.72,7.98,7.65,12.38,1.93,4.4,2.9,9.05,2.9,13.95Z"/>
    <path class="cls-1" d="M227.44,105.6c1.5,1.9,2.87,3.4,4.12,4.5,1.25,1.1,2.33,1.95,3.23,2.55.9.6,1.62,1.08,2.17,1.42.55.35.83.73.83,1.12,0,.5-.3.93-.9,1.28-.6.35-1.35.53-2.25.53-1.1,0-2.68-.25-4.72-.75-2.05-.5-4.3-1.45-6.75-2.85-2.45-1.4-4.93-3.4-7.42-6-2.5-2.6-4.8-6-6.9-10.2-2.7,2.2-6.4,4.55-11.1,7.05-4.7,2.5-9.73,4.8-15.08,6.9-5.35,2.1-10.68,3.85-15.98,5.25-5.3,1.4-9.85,2.1-13.65,2.1-2.1,0-4.23-.2-6.38-.6-2.15-.4-4.12-1.12-5.92-2.17-1.8-1.05-3.28-2.52-4.43-4.42-1.15-1.9-1.72-4.35-1.72-7.35,0-3.5,1.7-7.27,5.1-11.32,3.4-4.05,7.7-7.8,12.9-11.25,5.2-3.45,10.85-6.3,16.95-8.55,6.1-2.25,11.85-3.38,17.25-3.38,1.7,0,3.22.03,4.58.08,1.35.05,2.57.28,3.67.67,1.9,1.2,3.1,2.58,3.6,4.12.5,1.55.55,3.1.15,4.65-.4,1.55-1.18,3-2.33,4.35-1.15,1.35-2.47,2.43-3.97,3.23h-1.8c-.5,0-1.12-.02-1.88-.08-.75-.05-1.57-.07-2.47-.07-3.1,0-6.3.5-9.6,1.5-3.3,1-6.45,2.28-9.45,3.83-3,1.55-5.75,3.22-8.25,5.03-2.5,1.8-4.5,3.5-6,5.1,4.1,0,8.12-.5,12.08-1.5,3.95-1,7.77-2.25,11.47-3.75,3.7-1.5,7.22-3.15,10.58-4.95,3.35-1.8,6.45-3.45,9.3-4.95,2.85-1.5,5.45-2.75,7.8-3.75,2.35-1,4.32-1.5,5.92-1.5,2.5,0,4.43.75,5.78,2.25s2.52,3.43,3.53,5.77c1,2.35,2.05,4.95,3.15,7.8,1.1,2.85,2.7,5.62,4.8,8.33Z"/>
    <path class="cls-1" d="M269.89,63.9c0,2.7.05,5.7.15,9,.1,3.3.3,6.6.6,9.9s.72,6.43,1.27,9.38c.55,2.95,1.28,5.38,2.18,7.27,2.7-2.1,6.32-5.72,10.88-10.88,4.55-5.15,9.67-11.35,15.38-18.6,5.7-7.25,11.8-15.42,18.3-24.52,6.5-9.1,13.05-18.7,19.65-28.8,3.8-5.8,6.7-9.98,8.7-12.52,2-2.55,3.4-3.83,4.2-3.83.5,0,.72.48.67,1.42-.05.95-.22,2.1-.52,3.45-.3,1.35-.65,2.73-1.05,4.12-.4,1.4-.75,2.55-1.05,3.45-.8,2.8-2.25,6.43-4.35,10.88-2.1,4.45-4.6,9.4-7.5,14.85-2.9,5.45-6.15,11.18-9.75,17.18-3.6,6-7.35,11.95-11.25,17.85-3.9,5.9-7.88,11.5-11.92,16.8-4.05,5.3-7.95,9.97-11.7,14.02-3.75,4.05-7.3,7.28-10.65,9.68-3.35,2.4-6.28,3.6-8.77,3.6-3.09,0-5.73-1.07-7.91-3.22-2.18-2.15-3.99-4.92-5.43-8.33-1.44-3.4-2.58-7.2-3.42-11.4-.84-4.2-1.49-8.35-1.93-12.45-.45-4.1-.72-7.92-.82-11.48-.1-3.55-.15-6.38-.15-8.47,0-7.5.32-14.55.97-21.15.64-6.6,1.36-12.4,2.15-17.4.79-5,1.54-9.07,2.23-12.23.69-3.15,1.09-5.07,1.19-5.77.6-1.5,1.69-2.7,3.27-3.6,1.58-.9,3.22-1.35,4.91-1.35s3.28.58,4.78,1.72c1.5,1.15,2.45,3.08,2.85,5.78,0,.8-.33,2.85-.97,6.15-.65,3.3-1.35,7.45-2.1,12.45-.75,5-1.45,10.7-2.1,17.1-.65,6.4-.97,13.05-.97,19.95Z"/>
    <path class="cls-1" d="M355.54,107.25c-2,2.6-3.83,4.95-5.48,7.05-1.65,2.1-3.18,3.15-4.58,3.15-1,0-1.88-.47-2.62-1.42-.75-.95-1.35-2.1-1.8-3.45-.45-1.35-.8-2.82-1.05-4.42-.25-1.6-.38-3.1-.38-4.5.3-1.7.9-4.07,1.8-7.12.9-3.05,1.95-6.22,3.15-9.52,1.2-3.3,2.45-6.42,3.75-9.38,1.3-2.95,2.5-5.18,3.6-6.68,2.6.3,5.07,1.23,7.42,2.77,2.35,1.55,4.22,3.43,5.62,5.62-2.1,4.7-3.9,9.18-5.4,13.42-1.5,4.25-2.85,9.08-4.05,14.48ZM368.74,46.05c.6,0,1.35.05,2.25.15.9.1,1.77.4,2.62.9.85.5,1.58,1.35,2.18,2.55.6,1.2.9,2.85.9,4.95,0,1.7-.5,3.18-1.5,4.43-1,1.25-2.17,2.28-3.52,3.07-1.35.8-2.75,1.43-4.2,1.88-1.45.45-2.62.68-3.53.68-1.8,0-3.18-.32-4.12-.98-.95-.65-1.65-1.4-2.1-2.25-.45-.85-.7-1.7-.75-2.55-.05-.85-.08-1.52-.08-2.03,0-1.3.38-2.6,1.12-3.9.75-1.3,1.67-2.48,2.78-3.52,1.1-1.05,2.35-1.88,3.75-2.48,1.4-.6,2.8-.9,4.2-.9Z"/>
    <path class="cls-1" d="M386.44,71.55c1.5-.7,3.05-1.1,4.65-1.2,1.6-.1,3.1.18,4.5.83,1.4.65,2.62,1.63,3.68,2.92,1.05,1.3,1.72,2.9,2.02,4.8-.8,1.2-1.55,2.55-2.25,4.05-.7,1.3-1.4,2.88-2.1,4.73-.7,1.85-1.4,3.93-2.1,6.22,2-1.8,4.62-4.12,7.88-6.97,3.25-2.85,6.8-5.6,10.65-8.25,3.85-2.65,7.82-4.95,11.92-6.9,4.1-1.95,8-2.93,11.7-2.93s7.07.53,10.12,1.58c3.05,1.05,5.67,2.7,7.88,4.95,2.2,2.25,3.9,5.15,5.1,8.7,1.2,3.55,1.8,7.87,1.8,12.98,0,4.5-.4,8.35-1.2,11.55-.8,3.2-1.68,5.83-2.62,7.88-.95,2.05-2.28,4.07-3.98,6.08-.7,0-1.45-1.58-2.25-4.73-.8-3.15-1.2-7.42-1.2-12.82,0-3.1-.48-5.9-1.43-8.4-.95-2.5-2.12-4.62-3.52-6.38-1.4-1.75-2.85-3.1-4.35-4.05-1.5-.95-2.8-1.42-3.9-1.42-2,0-4.38.8-7.12,2.4-2.75,1.6-5.68,3.63-8.78,6.08-3.1,2.45-6.28,5.08-9.52,7.88-3.25,2.8-6.4,5.43-9.45,7.88-3.05,2.45-5.88,4.48-8.48,6.08-2.6,1.6-4.75,2.4-6.45,2.4s-3.2-.4-4.5-1.2c-1.3-.8-2.45-1.8-3.45-3-1-1.2-1.75-2.55-2.25-4.05-.5-1.5-.75-2.95-.75-4.35,0-3.1.52-6.72,1.58-10.88,1.05-4.15,2.22-7.97,3.52-11.47,1.3-3.5,2.42-6.35,3.38-8.55.95-2.2,1.37-3,1.28-2.4Z"/>
    <path class="cls-1" d="M568.39,102.3c-.4.2-1.5.76-3.3,1.67-1.8.91-4.12,1.94-6.98,3.1-2.85,1.16-6.1,2.4-9.75,3.71-3.65,1.31-7.55,2.52-11.7,3.63-4.15,1.11-8.43,2.02-12.82,2.73-4.4.71-8.75,1.06-13.05,1.06-3.8,0-7.83-.1-12.07-.3-4.25-.2-8.15-.85-11.7-1.95-3.55-1.1-6.48-2.85-8.78-5.25-2.3-2.4-3.45-5.8-3.45-10.2,0-3.8,1.25-7.35,3.75-10.65,2.5-3.3,5.72-6.3,9.68-9,3.95-2.7,8.32-5.07,13.12-7.12,4.8-2.05,9.45-3.77,13.95-5.17,4.5-1.4,8.6-2.48,12.3-3.23,3.7-.75,6.45-1.12,8.25-1.12,1.4.2,2.57,1,3.52,2.39.95,1.39,1.55,2.94,1.8,4.63.25,1.69.15,3.41-.3,5.16s-1.38,3.11-2.77,4.11c-7.1.8-13.53,2.07-19.28,3.81-5.75,1.74-10.63,3.61-14.62,5.6-4,1.99-7.08,3.89-9.22,5.68-2.15,1.79-3.23,3.09-3.23,3.88,0,.3.17.62.53.97.35.35,1.12.67,2.33.97,1.2.3,2.97.52,5.32.67,2.35.15,5.52.22,9.53.22,1.6,0,4-.17,7.2-.53,3.2-.35,6.77-.75,10.72-1.2,3.95-.45,8.05-.97,12.3-1.57,4.25-.6,8.3-1.12,12.15-1.58,3.85-.45,7.28-.85,10.28-1.2,3-.35,5.15-.53,6.45-.53,3.3,0,4.95.55,4.95,1.65,0,.6-.3,1.28-.9,2.03-.6.75-2,1.72-4.2,2.92Z"/>
    <path class="cls-1" d="M603.79,107.25c-2,2.6-3.83,4.95-5.48,7.05-1.65,2.1-3.18,3.15-4.58,3.15-1,0-1.88-.47-2.62-1.42-.75-.95-1.35-2.1-1.8-3.45-.45-1.35-.8-2.82-1.05-4.42-.25-1.6-.38-3.1-.38-4.5.3-1.7.9-4.07,1.8-7.12.9-3.05,1.95-6.22,3.15-9.52,1.2-3.3,2.45-6.42,3.75-9.38,1.3-2.95,2.5-5.18,3.6-6.68,2.6.3,5.07,1.23,7.42,2.77,2.35,1.55,4.22,3.43,5.62,5.62-2.1,4.7-3.9,9.18-5.4,13.42-1.5,4.25-2.85,9.08-4.05,14.48ZM616.99,46.05c.6,0,1.35.05,2.25.15.9.1,1.77.4,2.62.9.85.5,1.58,1.35,2.18,2.55.6,1.2.9,2.85.9,4.95,0,1.7-.5,3.18-1.5,4.43-1,1.25-2.17,2.28-3.52,3.07-1.35.8-2.75,1.43-4.2,1.88-1.45.45-2.62.68-3.53.68-1.8,0-3.18-.32-4.12-.98-.95-.65-1.65-1.4-2.1-2.25-.45-.85-.7-1.7-.75-2.55-.05-.85-.08-1.52-.08-2.03,0-1.3.38-2.6,1.12-3.9.75-1.3,1.67-2.48,2.78-3.52,1.1-1.05,2.35-1.88,3.75-2.48,1.4-.6,2.8-.9,4.2-.9Z"/>
  </g>
  <g>
    <path class="cls-1" d="M46.33,176.53l-7.34,20.3h-4.7l-11.14-32.02h6.62l7.15,21.79,7.82-22.08h3.46l7.39,22.08,7.68-21.79h6.62l-11.86,32.02h-4.7l-7.01-20.3Z"/>
    <path class="cls-1" d="M101,164.81v5.38h-11.52v7.15h11.04v5.38h-11.04v8.74h11.52v5.38h-17.76v-32.02h17.76Z"/>
    <path class="cls-1" d="M116.64,164.81h7.92c3.49,0,6.1.67,7.82,2.02,1.98,1.54,2.98,3.74,2.98,6.62s-1.2,4.94-3.6,6.29c1.63.26,3.02.93,4.18,2.02,1.54,1.47,2.3,3.47,2.3,6,0,2.69-.91,4.85-2.74,6.48-1.95,1.73-4.66,2.59-8.11,2.59h-10.75v-32.02ZM122.88,169.9v8.21h1.78c.32,0,.62,0,.89-.02.27-.02.67-.1,1.2-.26.53-.16.98-.38,1.34-.65.37-.27.7-.69.98-1.25.29-.56.43-1.22.43-1.99,0-1.38-.45-2.39-1.34-3.05-.9-.66-2.05-.98-3.46-.98h-1.82ZM122.88,182.91v8.83h2.69c1.86,0,3.28-.29,4.27-.86,1.31-.77,1.97-2,1.97-3.7s-.78-2.94-2.35-3.65c-.9-.42-2.32-.62-4.27-.62h-2.3Z"/>
    <path class="cls-1" d="M169.83,185.07v-5.38h14.69v.38c0,5.73-1.57,10.14-4.7,13.25-2.82,2.82-6.61,4.22-11.38,4.22s-8.74-1.44-11.62-4.32c-3.17-3.17-4.75-7.28-4.75-12.34s1.57-8.77,4.7-11.9c3.2-3.26,7.41-4.9,12.62-4.9,2.82,0,5.28.56,7.39,1.68,2.46,1.25,4.46,3.2,6,5.86l-5.42,2.93c-.86-1.66-2.11-2.93-3.74-3.79-1.34-.67-2.85-1.01-4.51-1.01-3.01,0-5.47.94-7.39,2.83-2.14,2.08-3.22,4.9-3.22,8.45,0,3.36,1.06,6.06,3.17,8.11,1.89,1.82,4.25,2.74,7.1,2.74,2.5,0,4.59-.64,6.29-1.92,1.54-1.18,2.54-2.82,3.02-4.9h-8.26Z"/>
    <path class="cls-1" d="M199.88,164.81h9.26c3.52,0,6.24.8,8.16,2.4,2.11,1.79,3.17,4.19,3.17,7.2,0,3.33-1.25,5.84-3.74,7.54-.96.67-2.13,1.14-3.5,1.39l9.98,13.49h-7.78l-8.54-12.86h-.77v12.86h-6.24v-32.02ZM206.12,169.9v9.65h1.78c.51,0,1.02-.04,1.51-.12.5-.08,1.14-.25,1.94-.53.8-.27,1.45-.77,1.94-1.49.5-.72.74-1.62.74-2.71s-.24-1.99-.72-2.71c-.48-.72-1.12-1.22-1.92-1.49-.8-.27-1.44-.44-1.92-.5-.48-.06-.98-.1-1.49-.1h-1.87Z"/>
    <path class="cls-1" d="M258.82,196.83l-2.83-6.72h-12.91l-2.83,6.72h-6.77l13.78-32.02h4.9l13.39,32.02h-6.72ZM245.04,185.02h9.12l-4.56-11.52-4.56,11.52Z"/>
    <path class="cls-1" d="M277.25,196.83l5.95-32.02h4.51l8.5,20.35,8.88-20.35h4.51l5.38,32.02h-6.34l-2.88-19.73-8.59,19.73h-2.11l-8.21-19.73-3.26,19.73h-6.34Z"/>
    <path class="cls-1" d="M349.39,196.83l5.95-32.02h4.51l8.5,20.35,8.88-20.35h4.51l5.38,32.02h-6.34l-2.88-19.73-8.59,19.73h-2.11l-8.21-19.73-3.26,19.73h-6.34Z"/>
    <path class="cls-1" d="M424.18,196.83l-2.83-6.72h-12.91l-2.83,6.72h-6.77l13.78-32.02h4.9l13.39,32.02h-6.72ZM410.4,185.02h9.12l-4.56-11.52-4.56,11.52Z"/>
    <path class="cls-1" d="M444.24,164.81h9.26c3.52,0,6.24.8,8.16,2.4,2.11,1.79,3.17,4.19,3.17,7.2,0,3.33-1.25,5.84-3.74,7.54-.96.67-2.13,1.14-3.5,1.39l9.98,13.49h-7.78l-8.54-12.86h-.77v12.86h-6.24v-32.02ZM450.48,169.9v9.65h1.78c.51,0,1.02-.04,1.51-.12.5-.08,1.14-.25,1.94-.53.8-.27,1.45-.77,1.94-1.49.5-.72.74-1.62.74-2.71s-.24-1.99-.72-2.71c-.48-.72-1.12-1.22-1.92-1.49-.8-.27-1.44-.44-1.92-.5-.48-.06-.98-.1-1.49-.1h-1.87Z"/>
    <path class="cls-1" d="M487.63,164.81v13.54l11.76-13.54h7.87l-13.54,14.78,14.26,17.23h-8.26l-11.38-14.35-.72.72v13.63h-6.24v-32.02h6.24Z"/>
    <path class="cls-1" d="M539.28,164.81v5.38h-11.52v7.15h11.04v5.38h-11.04v8.74h11.52v5.38h-17.76v-32.02h17.76Z"/>
    <path class="cls-1" d="M573.22,170.19h-7.2v26.64h-6.24v-26.64h-7.2v-5.38h20.64v5.38Z"/>
  </g>
</svg>
