<svg xmlns="http://www.w3.org/2000/svg" xmlns:v="https://svgstorm.com"
viewBox = "0 0 554 525"
width="554"
height="525">
<g fill="None" fill-opacity="0.0" stroke="#000000" stroke-opacity="0.00" stroke-width="0.3"><path d="
M 0.00 525.00 
L 554.00 525.00
L 554.00 0.00
L 0.00 0.00
L 0.00 525.00
M 289.00 4.00 
C 330.65 8.03 378.31 15.88 414.08 37.92 C 449.84 59.97 472.37 80.84 496.30 115.70 C 520.24 150.55 532.45 192.77 536.00 236.00 C 539.55 279.23 533.12 334.38 515.23 372.23 C 497.34 410.08 478.17 435.52 445.25 462.25 C 412.34 488.99 376.93 503.80 335.00 512.00 C 293.06 520.19 233.56 519.00 192.93 507.07 C 152.29 495.15 121.22 478.81 90.25 449.75 C 59.27 420.69 41.47 392.19 27.07 352.93 C 12.68 313.66 9.55 253.78 16.93 211.93 C 24.30 170.08 38.04 132.32 64.77 99.77 C 91.50 67.22 116.22 46.40 154.08 29.08 C 191.93 11.75 244.70 -0.29 289.00 4.00 Z"/>
</g>
<g fill="None" fill-opacity="0.0" stroke="#FFBE5A" stroke-opacity="0.99" stroke-width="0.3"><path d="
M 289.00 4.00 
C 244.70 -0.29 191.93 11.75 154.08 29.08 C 116.22 46.40 91.50 67.22 64.77 99.77 C 38.04 132.32 24.30 170.08 16.93 211.93 C 9.55 253.78 12.68 313.66 27.07 352.93 C 41.47 392.19 59.27 420.69 90.25 449.75 C 121.22 478.81 152.29 495.15 192.93 507.07 C 233.56 519.00 293.06 520.19 335.00 512.00 C 376.93 503.80 412.34 488.99 445.25 462.25 C 478.17 435.52 497.34 410.08 515.23 372.23 C 533.12 334.38 539.55 279.23 536.00 236.00 C 532.45 192.77 520.24 150.55 496.30 115.70 C 472.37 80.84 449.84 59.97 414.08 37.92 C 378.31 15.88 330.65 8.03 289.00 4.00
M 289.00 92.00 
C 357.63 98.64 415.95 145.66 431.99 214.01 C 448.03 282.36 428.69 363.64 367.30 403.30 C 305.91 442.96 222.88 439.14 167.30 391.70 C 111.72 344.25 99.61 259.04 123.98 192.98 C 148.34 126.91 218.76 85.20 289.00 92.00 Z"/>
</g>
<g fill="None" fill-opacity="0.0" stroke="#000000" stroke-opacity="0.00" stroke-width="0.3"><path d="
M 289.00 92.00 
C 218.76 85.20 148.34 126.91 123.98 192.98 C 99.61 259.04 111.72 344.25 167.30 391.70 C 222.88 439.14 305.91 442.96 367.30 403.30 C 428.69 363.64 448.03 282.36 431.99 214.01 C 415.95 145.66 357.63 98.64 289.00 92.00 Z"/>
</g>
<g fill="#000000" fill-opacity="0.00" stroke="None">
<path d="
M 0.00 525.00 
L 554.00 525.00
L 554.00 0.00
L 0.00 0.00
L 0.00 525.00
M 289.00 4.00 
C 330.65 8.03 378.31 15.88 414.08 37.92 C 449.84 59.97 472.37 80.84 496.30 115.70 C 520.24 150.55 532.45 192.77 536.00 236.00 C 539.55 279.23 533.12 334.38 515.23 372.23 C 497.34 410.08 478.17 435.52 445.25 462.25 C 412.34 488.99 376.93 503.80 335.00 512.00 C 293.06 520.19 233.56 519.00 192.93 507.07 C 152.29 495.15 121.22 478.81 90.25 449.75 C 59.27 420.69 41.47 392.19 27.07 352.93 C 12.68 313.66 9.55 253.78 16.93 211.93 C 24.30 170.08 38.04 132.32 64.77 99.77 C 91.50 67.22 116.22 46.40 154.08 29.08 C 191.93 11.75 244.70 -0.29 289.00 4.00 Z"/>
</g>
<g fill="#FFBE5A" fill-opacity="0.99" stroke="None">
<path d="
M 289.00 4.00 
C 244.70 -0.29 191.93 11.75 154.08 29.08 C 116.22 46.40 91.50 67.22 64.77 99.77 C 38.04 132.32 24.30 170.08 16.93 211.93 C 9.55 253.78 12.68 313.66 27.07 352.93 C 41.47 392.19 59.27 420.69 90.25 449.75 C 121.22 478.81 152.29 495.15 192.93 507.07 C 233.56 519.00 293.06 520.19 335.00 512.00 C 376.93 503.80 412.34 488.99 445.25 462.25 C 478.17 435.52 497.34 410.08 515.23 372.23 C 533.12 334.38 539.55 279.23 536.00 236.00 C 532.45 192.77 520.24 150.55 496.30 115.70 C 472.37 80.84 449.84 59.97 414.08 37.92 C 378.31 15.88 330.65 8.03 289.00 4.00
M 289.00 92.00 
C 357.63 98.64 415.95 145.66 431.99 214.01 C 448.03 282.36 428.69 363.64 367.30 403.30 C 305.91 442.96 222.88 439.14 167.30 391.70 C 111.72 344.25 99.61 259.04 123.98 192.98 C 148.34 126.91 218.76 85.20 289.00 92.00 Z"/>
</g>
<g fill="#000000" fill-opacity="0.00" stroke="None">
<path d="
M 289.00 92.00 
C 218.76 85.20 148.34 126.91 123.98 192.98 C 99.61 259.04 111.72 344.25 167.30 391.70 C 222.88 439.14 305.91 442.96 367.30 403.30 C 428.69 363.64 448.03 282.36 431.99 214.01 C 415.95 145.66 357.63 98.64 289.00 92.00 Z"/>
</g>
</svg>