<svg xmlns="http://www.w3.org/2000/svg" xmlns:v="https://svgstorm.com"
viewBox = "0 0 672 747"
width="672"
height="747">
<g fill="None" fill-opacity="0.0" stroke="#000000" stroke-opacity="0.00" stroke-width="0.3"><path d="
M 0.00 176.00 
C 6.53 78.52 92.73 1.00 190.00 1.00
C 189.96 1.00 190.00 0.00 190.00 0.00
L 0.00 0.00
L 0.00 176.00 Z"/>
</g>
<g fill="None" fill-opacity="0.0" stroke="#FFBD54" stroke-opacity="0.25" stroke-width="0.3"><path d="
M 190.00 1.00 
C 213.00 1.00 236.00 1.00 259.00 1.00
C 258.96 1.00 259.00 0.00 259.00 0.00
L 190.00 0.00
C 190.00 0.00 189.96 1.00 190.00 1.00 Z"/>
</g>
<g fill="None" fill-opacity="0.0" stroke="#FEBE50" stroke-opacity="0.44" stroke-width="0.3"><path d="
M 259.00 1.00 
C 310.33 1.00 361.67 1.00 413.00 1.00
C 412.96 1.00 413.00 0.00 413.00 0.00
L 259.00 0.00
C 259.00 0.00 258.96 1.00 259.00 1.00 Z"/>
</g>
<g fill="None" fill-opacity="0.0" stroke="#FFBD53" stroke-opacity="0.25" stroke-width="0.3"><path d="
M 413.00 1.00 
C 449.33 1.00 485.67 1.00 522.00 1.00
C 521.96 1.00 522.00 0.00 522.00 0.00
L 413.00 0.00
C 413.00 0.00 412.96 1.00 413.00 1.00 Z"/>
</g>
<g fill="None" fill-opacity="0.0" stroke="#000000" stroke-opacity="0.00" stroke-width="0.3"><path d="
M 522.00 1.00 
C 598.02 1.00 665.42 62.68 672.00 138.00
L 672.00 0.00
L 522.00 0.00
C 522.00 0.00 521.96 1.00 522.00 1.00 Z"/>
</g>
<g fill="None" fill-opacity="0.0" stroke="#FEBE51" stroke-opacity="0.98" stroke-width="0.3"><path d="
M 0.00 176.00 
L 0.00 182.00
C 1.63 187.26 1.69 195.81 0.00 201.00
L 0.00 205.00
C 3.09 229.19 10.67 257.62 21.77 279.23 C 32.87 300.84 45.27 317.34 62.25 334.75 C 79.23 352.16 99.65 362.16 119.70 374.30 C 139.74 386.45 161.67 396.28 181.69 408.31 C 201.72 420.33 225.87 428.93 241.00 446.00
C 212.43 447.53 176.19 447.17 148.00 447.00 C 119.81 446.83 94.99 455.40 72.75 468.75 C 50.51 482.11 37.77 494.56 23.75 515.75 C 9.72 536.94 2.59 564.17 0.00 589.00
L 0.00 598.00
C 2.94 628.68 10.48 660.86 30.30 685.70 C 50.13 710.54 67.92 724.20 97.69 736.31 C 127.47 748.41 172.07 746.00 206.00 746.00
C 216.67 746.00 227.33 746.00 238.00 746.00
C 311.00 746.00 384.00 746.00 457.00 746.00
C 463.33 746.00 469.67 746.00 476.00 746.00
C 528.21 746.00 576.74 728.80 614.25 692.25 C 651.75 655.69 669.63 608.84 672.00 558.00
L 672.00 552.00
C 670.22 521.05 660.09 483.76 644.70 457.31 C 629.30 430.85 611.13 409.95 586.25 392.75 C 561.38 375.54 534.67 363.38 508.92 348.08 C 483.18 332.77 454.02 321.82 432.00 302.00
C 459.86 298.40 496.92 299.93 525.00 300.00 C 553.08 300.07 576.15 290.04 599.23 278.23 C 622.31 266.42 633.14 251.68 646.92 230.92 C 660.70 210.16 668.95 184.38 672.00 160.00
L 672.00 156.00
C 670.42 152.73 670.29 146.20 672.00 143.00
L 672.00 138.00
C 665.42 62.68 598.02 1.00 522.00 1.00
C 485.67 1.00 449.33 1.00 413.00 1.00
C 361.67 1.00 310.33 1.00 259.00 1.00
C 236.00 1.00 213.00 1.00 190.00 1.00
C 92.73 1.00 6.53 78.52 0.00 176.00
M 495.00 46.00 
C 506.26 46.00 520.60 45.74 531.22 46.78 C 541.85 47.81 552.12 49.80 561.22 53.78 C 570.33 57.75 577.14 61.51 584.75 67.25 C 592.35 73.00 597.70 78.96 603.75 86.25 C 609.80 93.54 613.46 100.44 617.92 109.08 C 622.39 117.71 624.82 127.93 626.00 138.00 C 627.18 148.07 627.34 161.99 624.67 171.67 C 622.00 181.35 619.45 191.20 614.70 199.69 C 609.94 208.19 605.95 214.29 599.25 221.25 C 592.55 228.21 587.29 232.92 579.25 238.25 C 571.22 243.59 563.71 246.83 553.98 249.98 C 544.24 253.12 533.30 255.87 522.00 256.00 C 510.70 256.13 496.83 255.92 485.00 256.00 C 473.17 256.08 460.02 255.90 448.00 256.00 C 435.98 256.10 423.01 255.83 411.00 256.00 C 398.99 256.17 384.68 255.65 373.00 256.00 C 361.32 256.35 346.75 255.21 336.00 256.00 C 325.25 256.79 316.68 260.09 314.07 271.07 C 311.47 282.05 313.43 295.99 313.00 308.00 C 312.57 320.01 313.04 332.52 313.00 345.00 C 312.96 357.48 312.69 368.96 313.00 382.00 C 313.31 395.04 312.12 404.93 313.00 419.00 C 313.88 433.07 300.70 424.07 292.92 419.08 C 285.14 414.09 276.77 410.76 268.92 406.08 C 261.08 401.40 253.24 397.19 245.30 392.70 C 237.37 388.20 229.20 384.33 221.31 379.69 C 213.41 375.06 205.02 370.33 196.92 366.08 C 188.83 361.82 181.40 356.84 173.30 352.70 C 165.21 348.55 157.30 343.98 149.30 339.70 C 141.31 335.41 133.45 331.06 125.77 326.23 C 118.09 321.40 110.57 316.18 103.30 310.70 C 96.04 305.21 90.75 299.10 84.75 292.25 C 78.74 285.41 73.73 278.95 69.08 270.92 C 64.43 262.89 59.83 254.73 56.22 245.78 C 52.62 236.82 50.00 226.86 48.01 216.99 C 46.02 207.12 44.45 193.55 45.00 183.00 C 45.55 172.45 48.50 161.62 50.93 151.93 C 53.35 142.23 57.42 133.28 61.77 124.77 C 66.12 116.26 70.26 109.32 76.25 102.25 C 82.23 95.18 87.32 89.55 94.25 83.25 C 101.17 76.95 107.24 72.45 115.25 67.25 C 123.25 62.04 131.72 58.61 141.07 55.07 C 150.43 51.54 160.01 49.36 170.67 47.67 C 181.33 45.98 194.19 45.78 206.00 46.00 C 217.81 46.22 230.82 45.91 243.00 46.00 C 255.18 46.09 268.69 45.96 281.00 46.00 C 293.31 46.04 305.68 45.98 318.00 46.00 C 330.32 46.02 342.67 45.99 355.00 46.00 C 367.33 46.01 379.67 46.00 392.00 46.00
C 400.66 45.26 409.64 45.00 418.00 45.00
C 439.33 45.00 460.67 45.00 482.00 45.00
C 486.41 45.00 491.34 45.65 495.00 46.00
M 173.00 491.00 
C 177.39 490.58 182.93 490.00 188.00 490.00
C 201.62 490.00 215.40 490.18 229.00 490.00 C 242.60 489.82 257.56 490.45 271.00 490.00 C 284.44 489.55 299.02 491.06 312.00 490.00 C 324.98 488.94 339.76 493.72 350.69 486.70 C 361.63 479.67 358.63 466.62 359.00 454.00 C 359.37 441.38 359.01 425.57 359.00 412.00 C 358.99 398.43 359.42 385.41 359.00 371.00 C 358.58 356.59 360.08 344.56 359.00 329.00 C 357.92 313.44 372.46 323.35 381.23 328.77 C 389.99 334.19 398.77 338.28 407.70 343.31 C 416.62 348.33 425.61 353.63 434.70 358.30 C 443.78 362.98 452.29 367.88 461.25 372.75 C 470.20 377.62 479.49 382.54 488.23 387.77 C 496.97 393.00 505.85 397.29 514.70 402.31 C 523.54 407.32 532.87 412.33 541.70 417.31 C 550.52 422.28 558.67 428.15 566.75 434.25 C 574.84 440.35 581.30 446.21 587.77 454.23 C 594.24 462.25 600.11 469.80 604.92 479.08 C 609.73 488.36 615.53 496.29 617.98 507.02 C 620.42 517.76 624.85 529.47 626.00 541.00 C 627.14 552.53 627.02 567.78 625.00 579.00 C 622.99 590.22 619.35 601.19 615.23 611.23 C 611.11 621.27 606.78 630.18 600.70 638.70 C 594.61 647.22 588.79 652.88 581.25 660.25 C 573.71 667.62 566.95 673.50 557.77 678.77 C 548.59 684.04 540.54 688.25 529.92 691.92 C 519.31 695.60 508.01 698.30 495.98 699.98 C 483.94 701.65 469.16 700.88 456.00 701.00 C 442.84 701.12 427.53 700.94 414.00 701.00 C 400.47 701.06 386.71 700.97 373.00 701.00 C 359.29 701.03 344.80 700.98 331.00 701.00 C 317.20 701.02 302.76 700.97 289.00 701.00 C 275.24 701.03 261.66 700.94 248.00 701.00 C 234.34 701.06 219.46 700.88 206.00 701.00 C 192.54 701.12 177.97 700.73 165.00 701.00 C 152.03 701.27 137.73 700.50 126.33 697.67 C 114.92 694.85 106.80 691.15 97.30 685.70 C 87.81 680.24 82.08 674.40 74.25 666.75 C 66.42 659.10 61.76 651.92 56.69 642.31 C 51.63 632.69 48.93 622.40 46.67 611.33 C 44.41 600.26 45.34 584.73 47.93 573.93 C 50.52 563.13 53.50 553.35 59.25 544.25 C 65.01 535.16 69.54 528.03 77.75 520.75 C 85.97 513.47 91.33 508.43 101.23 503.23 C 111.13 498.02 121.53 494.94 133.22 493.22 C 144.91 491.50 160.51 491.00 173.00 491.00 Z"/>
</g>
<g fill="None" fill-opacity="0.0" stroke="#FFBF4D" stroke-opacity="0.08" stroke-width="0.3"><path d="
M 393.00 46.00 
C 401.33 46.00 409.67 46.00 418.00 46.00
C 417.96 46.00 418.00 45.00 418.00 45.00
C 409.64 45.00 400.66 45.26 393.00 46.00 Z"/>
</g>
<g fill="None" fill-opacity="0.0" stroke="#FE8080" stroke-opacity="0.01" stroke-width="0.3"><path d="
M 418.00 46.00 
C 439.33 46.00 460.67 46.00 482.00 46.00
C 481.96 46.00 482.00 45.00 482.00 45.00
C 460.67 45.00 439.33 45.00 418.00 45.00
C 418.00 45.00 417.96 46.00 418.00 46.00 Z"/>
</g>
<g fill="None" fill-opacity="0.0" stroke="#FFBE50" stroke-opacity="0.12" stroke-width="0.3"><path d="
M 482.00 46.00 
C 486.33 46.00 490.67 46.00 495.00 46.00
C 491.34 45.65 486.41 45.00 482.00 45.00
C 482.00 45.00 481.96 46.00 482.00 46.00 Z"/>
</g>
<g fill="None" fill-opacity="0.0" stroke="#000000" stroke-opacity="0.00" stroke-width="0.3"><path d="
M 495.00 46.00 
C 490.67 46.00 486.33 46.00 482.00 46.00
C 460.67 46.00 439.33 46.00 418.00 46.00
C 409.67 46.00 401.33 46.00 393.00 46.00
C 379.67 46.00 367.33 46.01 355.00 46.00 C 342.67 45.99 330.32 46.02 318.00 46.00 C 305.68 45.98 293.31 46.04 281.00 46.00 C 268.69 45.96 255.18 46.09 243.00 46.00 C 230.82 45.91 217.81 46.22 206.00 46.00 C 194.19 45.78 181.33 45.98 170.67 47.67 C 160.01 49.36 150.43 51.54 141.07 55.07 C 131.72 58.61 123.25 62.04 115.25 67.25 C 107.24 72.45 101.17 76.95 94.25 83.25 C 87.32 89.55 82.23 95.18 76.25 102.25 C 70.26 109.32 66.12 116.26 61.77 124.77 C 57.42 133.28 53.35 142.23 50.93 151.93 C 48.50 161.62 45.55 172.45 45.00 183.00 C 44.45 193.55 46.02 207.12 48.01 216.99 C 50.00 226.86 52.62 236.82 56.22 245.78 C 59.83 254.73 64.43 262.89 69.08 270.92 C 73.73 278.95 78.74 285.41 84.75 292.25 C 90.75 299.10 96.04 305.21 103.30 310.70 C 110.57 316.18 118.09 321.40 125.77 326.23 C 133.45 331.06 141.31 335.41 149.30 339.70 C 157.30 343.98 165.21 348.55 173.30 352.70 C 181.40 356.84 188.83 361.82 196.92 366.08 C 205.02 370.33 213.41 375.06 221.31 379.69 C 229.20 384.33 237.37 388.20 245.30 392.70 C 253.24 397.19 261.08 401.40 268.92 406.08 C 276.77 410.76 285.14 414.09 292.92 419.08 C 300.70 424.07 313.88 433.07 313.00 419.00 C 312.12 404.93 313.31 395.04 313.00 382.00 C 312.69 368.96 312.96 357.48 313.00 345.00 C 313.04 332.52 312.57 320.01 313.00 308.00 C 313.43 295.99 311.47 282.05 314.07 271.07 C 316.68 260.09 325.25 256.79 336.00 256.00 C 346.75 255.21 361.32 256.35 373.00 256.00 C 384.68 255.65 398.99 256.17 411.00 256.00 C 423.01 255.83 435.98 256.10 448.00 256.00 C 460.02 255.90 473.17 256.08 485.00 256.00 C 496.83 255.92 510.70 256.13 522.00 256.00 C 533.30 255.87 544.24 253.12 553.98 249.98 C 563.71 246.83 571.22 243.59 579.25 238.25 C 587.29 232.92 592.55 228.21 599.25 221.25 C 605.95 214.29 609.94 208.19 614.70 199.69 C 619.45 191.20 622.00 181.35 624.67 171.67 C 627.34 161.99 627.18 148.07 626.00 138.00 C 624.82 127.93 622.39 117.71 617.92 109.08 C 613.46 100.44 609.80 93.54 603.75 86.25 C 597.70 78.96 592.35 73.00 584.75 67.25 C 577.14 61.51 570.33 57.75 561.22 53.78 C 552.12 49.80 541.85 47.81 531.22 46.78 C 520.60 45.74 506.26 46.00 495.00 46.00 Z"/>
</g>
<g fill="None" fill-opacity="0.0" stroke="#FEBF51" stroke-opacity="0.51" stroke-width="0.3"><path d="
M 672.00 156.00 
L 672.00 143.00
C 670.29 146.20 670.42 152.73 672.00 156.00 Z"/>
</g>
<g fill="None" fill-opacity="0.0" stroke="#000000" stroke-opacity="0.00" stroke-width="0.3"><path d="
M 672.00 552.00 
L 672.00 160.00
C 668.95 184.38 660.70 210.16 646.92 230.92 C 633.14 251.68 622.31 266.42 599.23 278.23 C 576.15 290.04 553.08 300.07 525.00 300.00 C 496.92 299.93 459.86 298.40 432.00 302.00
C 454.02 321.82 483.18 332.77 508.92 348.08 C 534.67 363.38 561.38 375.54 586.25 392.75 C 611.13 409.95 629.30 430.85 644.70 457.31 C 660.09 483.76 670.22 521.05 672.00 552.00 Z"/>
</g>
<g fill="None" fill-opacity="0.0" stroke="#FEBF51" stroke-opacity="0.60" stroke-width="0.3"><path d="
M 0.00 201.00 
C 1.69 195.81 1.63 187.26 0.00 182.00
L 0.00 201.00 Z"/>
</g>
<g fill="None" fill-opacity="0.0" stroke="#000000" stroke-opacity="0.00" stroke-width="0.3"><path d="
M 0.00 589.00 
C 2.59 564.17 9.72 536.94 23.75 515.75 C 37.77 494.56 50.51 482.11 72.75 468.75 C 94.99 455.40 119.81 446.83 148.00 447.00 C 176.19 447.17 212.43 447.53 241.00 446.00
C 225.87 428.93 201.72 420.33 181.69 408.31 C 161.67 396.28 139.74 386.45 119.70 374.30 C 99.65 362.16 79.23 352.16 62.25 334.75 C 45.27 317.34 32.87 300.84 21.77 279.23 C 10.67 257.62 3.09 229.19 0.00 205.00
L 0.00 589.00 Z"/>
</g>
<g fill="None" fill-opacity="0.0" stroke="#000000" stroke-opacity="0.00" stroke-width="0.3"><path d="
M 188.00 490.00 
C 183.61 490.42 178.07 491.00 173.00 491.00
C 160.51 491.00 144.91 491.50 133.22 493.22 C 121.53 494.94 111.13 498.02 101.23 503.23 C 91.33 508.43 85.97 513.47 77.75 520.75 C 69.54 528.03 65.01 535.16 59.25 544.25 C 53.50 553.35 50.52 563.13 47.93 573.93 C 45.34 584.73 44.41 600.26 46.67 611.33 C 48.93 622.40 51.63 632.69 56.69 642.31 C 61.76 651.92 66.42 659.10 74.25 666.75 C 82.08 674.40 87.81 680.24 97.30 685.70 C 106.80 691.15 114.92 694.85 126.33 697.67 C 137.73 700.50 152.03 701.27 165.00 701.00 C 177.97 700.73 192.54 701.12 206.00 701.00 C 219.46 700.88 234.34 701.06 248.00 701.00 C 261.66 700.94 275.24 701.03 289.00 701.00 C 302.76 700.97 317.20 701.02 331.00 701.00 C 344.80 700.98 359.29 701.03 373.00 701.00 C 386.71 700.97 400.47 701.06 414.00 701.00 C 427.53 700.94 442.84 701.12 456.00 701.00 C 469.16 700.88 483.94 701.65 495.98 699.98 C 508.01 698.30 519.31 695.60 529.92 691.92 C 540.54 688.25 548.59 684.04 557.77 678.77 C 566.95 673.50 573.71 667.62 581.25 660.25 C 588.79 652.88 594.61 647.22 600.70 638.70 C 606.78 630.18 611.11 621.27 615.23 611.23 C 619.35 601.19 622.99 590.22 625.00 579.00 C 627.02 567.78 627.14 552.53 626.00 541.00 C 624.85 529.47 620.42 517.76 617.98 507.02 C 615.53 496.29 609.73 488.36 604.92 479.08 C 600.11 469.80 594.24 462.25 587.77 454.23 C 581.30 446.21 574.84 440.35 566.75 434.25 C 558.67 428.15 550.52 422.28 541.70 417.31 C 532.87 412.33 523.54 407.32 514.70 402.31 C 505.85 397.29 496.97 393.00 488.23 387.77 C 479.49 382.54 470.20 377.62 461.25 372.75 C 452.29 367.88 443.78 362.98 434.70 358.30 C 425.61 353.63 416.62 348.33 407.70 343.31 C 398.77 338.28 389.99 334.19 381.23 328.77 C 372.46 323.35 357.92 313.44 359.00 329.00 C 360.08 344.56 358.58 356.59 359.00 371.00 C 359.42 385.41 358.99 398.43 359.00 412.00 C 359.01 425.57 359.37 441.38 359.00 454.00 C 358.63 466.62 361.63 479.67 350.69 486.70 C 339.76 493.72 324.98 488.94 312.00 490.00 C 299.02 491.06 284.44 489.55 271.00 490.00 C 257.56 490.45 242.60 489.82 229.00 490.00 C 215.40 490.18 201.62 490.00 188.00 490.00 Z"/>
</g>
<g fill="None" fill-opacity="0.0" stroke="#FE8080" stroke-opacity="0.01" stroke-width="0.3"><path d="
M 173.00 491.00 
C 178.07 491.00 183.61 490.42 188.00 490.00
C 182.93 490.00 177.39 490.58 173.00 491.00 Z"/>
</g>
<g fill="None" fill-opacity="0.0" stroke="#000000" stroke-opacity="0.00" stroke-width="0.3"><path d="
M 476.00 746.00 
C 476.04 746.00 476.00 747.00 476.00 747.00
L 672.00 747.00
L 672.00 558.00
C 669.63 608.84 651.75 655.69 614.25 692.25 C 576.74 728.80 528.21 746.00 476.00 746.00 Z"/>
</g>
<g fill="None" fill-opacity="0.0" stroke="#000000" stroke-opacity="0.00" stroke-width="0.3"><path d="
M 0.00 747.00 
L 206.00 747.00
C 206.00 746.50 206.00 746.00 206.00 746.00
C 172.07 746.00 127.47 748.41 97.69 736.31 C 67.92 724.20 50.13 710.54 30.30 685.70 C 10.48 660.86 2.94 628.68 0.00 598.00
L 0.00 747.00 Z"/>
</g>
<g fill="None" fill-opacity="0.0" stroke="#FE8080" stroke-opacity="0.01" stroke-width="0.3"><path d="
M 206.00 747.00 
L 238.00 747.00
C 238.00 746.50 238.00 746.00 238.00 746.00
C 227.33 746.00 216.67 746.00 206.00 746.00
C 206.00 746.00 206.00 746.50 206.00 747.00 Z"/>
</g>
<g fill="None" fill-opacity="0.0" stroke="#FFBC52" stroke-opacity="0.15" stroke-width="0.3"><path d="
M 238.00 747.00 
L 457.00 747.00
C 457.00 746.50 457.00 746.00 457.00 746.00
C 384.00 746.00 311.00 746.00 238.00 746.00
C 238.00 746.00 238.00 746.50 238.00 747.00 Z"/>
</g>
<g fill="None" fill-opacity="0.0" stroke="#FE8080" stroke-opacity="0.01" stroke-width="0.3"><path d="
M 457.00 747.00 
L 476.00 747.00
C 476.00 747.00 476.04 746.00 476.00 746.00
C 469.67 746.00 463.33 746.00 457.00 746.00
C 457.00 746.00 457.00 746.50 457.00 747.00 Z"/>
</g>
<g fill="#000000" fill-opacity="0.00" stroke="None">
<path d="
M 0.00 176.00 
C 6.53 78.52 92.73 1.00 190.00 1.00
C 189.96 1.00 190.00 0.00 190.00 0.00
L 0.00 0.00
L 0.00 176.00 Z"/>
</g>
<g fill="#FFBD54" fill-opacity="0.25" stroke="None">
<path d="
M 190.00 1.00 
C 213.00 1.00 236.00 1.00 259.00 1.00
C 258.96 1.00 259.00 0.00 259.00 0.00
L 190.00 0.00
C 190.00 0.00 189.96 1.00 190.00 1.00 Z"/>
</g>
<g fill="#FEBE50" fill-opacity="0.44" stroke="None">
<path d="
M 259.00 1.00 
C 310.33 1.00 361.67 1.00 413.00 1.00
C 412.96 1.00 413.00 0.00 413.00 0.00
L 259.00 0.00
C 259.00 0.00 258.96 1.00 259.00 1.00 Z"/>
</g>
<g fill="#FFBD53" fill-opacity="0.25" stroke="None">
<path d="
M 413.00 1.00 
C 449.33 1.00 485.67 1.00 522.00 1.00
C 521.96 1.00 522.00 0.00 522.00 0.00
L 413.00 0.00
C 413.00 0.00 412.96 1.00 413.00 1.00 Z"/>
</g>
<g fill="#000000" fill-opacity="0.00" stroke="None">
<path d="
M 522.00 1.00 
C 598.02 1.00 665.42 62.68 672.00 138.00
L 672.00 0.00
L 522.00 0.00
C 522.00 0.00 521.96 1.00 522.00 1.00 Z"/>
</g>
<g fill="#FEBE51" fill-opacity="0.98" stroke="None">
<path d="
M 0.00 176.00 
L 0.00 182.00
C 1.63 187.26 1.69 195.81 0.00 201.00
L 0.00 205.00
C 3.09 229.19 10.67 257.62 21.77 279.23 C 32.87 300.84 45.27 317.34 62.25 334.75 C 79.23 352.16 99.65 362.16 119.70 374.30 C 139.74 386.45 161.67 396.28 181.69 408.31 C 201.72 420.33 225.87 428.93 241.00 446.00
C 212.43 447.53 176.19 447.17 148.00 447.00 C 119.81 446.83 94.99 455.40 72.75 468.75 C 50.51 482.11 37.77 494.56 23.75 515.75 C 9.72 536.94 2.59 564.17 0.00 589.00
L 0.00 598.00
C 2.94 628.68 10.48 660.86 30.30 685.70 C 50.13 710.54 67.92 724.20 97.69 736.31 C 127.47 748.41 172.07 746.00 206.00 746.00
C 216.67 746.00 227.33 746.00 238.00 746.00
C 311.00 746.00 384.00 746.00 457.00 746.00
C 463.33 746.00 469.67 746.00 476.00 746.00
C 528.21 746.00 576.74 728.80 614.25 692.25 C 651.75 655.69 669.63 608.84 672.00 558.00
L 672.00 552.00
C 670.22 521.05 660.09 483.76 644.70 457.31 C 629.30 430.85 611.13 409.95 586.25 392.75 C 561.38 375.54 534.67 363.38 508.92 348.08 C 483.18 332.77 454.02 321.82 432.00 302.00
C 459.86 298.40 496.92 299.93 525.00 300.00 C 553.08 300.07 576.15 290.04 599.23 278.23 C 622.31 266.42 633.14 251.68 646.92 230.92 C 660.70 210.16 668.95 184.38 672.00 160.00
L 672.00 156.00
C 670.42 152.73 670.29 146.20 672.00 143.00
L 672.00 138.00
C 665.42 62.68 598.02 1.00 522.00 1.00
C 485.67 1.00 449.33 1.00 413.00 1.00
C 361.67 1.00 310.33 1.00 259.00 1.00
C 236.00 1.00 213.00 1.00 190.00 1.00
C 92.73 1.00 6.53 78.52 0.00 176.00
M 495.00 46.00 
C 506.26 46.00 520.60 45.74 531.22 46.78 C 541.85 47.81 552.12 49.80 561.22 53.78 C 570.33 57.75 577.14 61.51 584.75 67.25 C 592.35 73.00 597.70 78.96 603.75 86.25 C 609.80 93.54 613.46 100.44 617.92 109.08 C 622.39 117.71 624.82 127.93 626.00 138.00 C 627.18 148.07 627.34 161.99 624.67 171.67 C 622.00 181.35 619.45 191.20 614.70 199.69 C 609.94 208.19 605.95 214.29 599.25 221.25 C 592.55 228.21 587.29 232.92 579.25 238.25 C 571.22 243.59 563.71 246.83 553.98 249.98 C 544.24 253.12 533.30 255.87 522.00 256.00 C 510.70 256.13 496.83 255.92 485.00 256.00 C 473.17 256.08 460.02 255.90 448.00 256.00 C 435.98 256.10 423.01 255.83 411.00 256.00 C 398.99 256.17 384.68 255.65 373.00 256.00 C 361.32 256.35 346.75 255.21 336.00 256.00 C 325.25 256.79 316.68 260.09 314.07 271.07 C 311.47 282.05 313.43 295.99 313.00 308.00 C 312.57 320.01 313.04 332.52 313.00 345.00 C 312.96 357.48 312.69 368.96 313.00 382.00 C 313.31 395.04 312.12 404.93 313.00 419.00 C 313.88 433.07 300.70 424.07 292.92 419.08 C 285.14 414.09 276.77 410.76 268.92 406.08 C 261.08 401.40 253.24 397.19 245.30 392.70 C 237.37 388.20 229.20 384.33 221.31 379.69 C 213.41 375.06 205.02 370.33 196.92 366.08 C 188.83 361.82 181.40 356.84 173.30 352.70 C 165.21 348.55 157.30 343.98 149.30 339.70 C 141.31 335.41 133.45 331.06 125.77 326.23 C 118.09 321.40 110.57 316.18 103.30 310.70 C 96.04 305.21 90.75 299.10 84.75 292.25 C 78.74 285.41 73.73 278.95 69.08 270.92 C 64.43 262.89 59.83 254.73 56.22 245.78 C 52.62 236.82 50.00 226.86 48.01 216.99 C 46.02 207.12 44.45 193.55 45.00 183.00 C 45.55 172.45 48.50 161.62 50.93 151.93 C 53.35 142.23 57.42 133.28 61.77 124.77 C 66.12 116.26 70.26 109.32 76.25 102.25 C 82.23 95.18 87.32 89.55 94.25 83.25 C 101.17 76.95 107.24 72.45 115.25 67.25 C 123.25 62.04 131.72 58.61 141.07 55.07 C 150.43 51.54 160.01 49.36 170.67 47.67 C 181.33 45.98 194.19 45.78 206.00 46.00 C 217.81 46.22 230.82 45.91 243.00 46.00 C 255.18 46.09 268.69 45.96 281.00 46.00 C 293.31 46.04 305.68 45.98 318.00 46.00 C 330.32 46.02 342.67 45.99 355.00 46.00 C 367.33 46.01 379.67 46.00 392.00 46.00
C 400.66 45.26 409.64 45.00 418.00 45.00
C 439.33 45.00 460.67 45.00 482.00 45.00
C 486.41 45.00 491.34 45.65 495.00 46.00
M 173.00 491.00 
C 177.39 490.58 182.93 490.00 188.00 490.00
C 201.62 490.00 215.40 490.18 229.00 490.00 C 242.60 489.82 257.56 490.45 271.00 490.00 C 284.44 489.55 299.02 491.06 312.00 490.00 C 324.98 488.94 339.76 493.72 350.69 486.70 C 361.63 479.67 358.63 466.62 359.00 454.00 C 359.37 441.38 359.01 425.57 359.00 412.00 C 358.99 398.43 359.42 385.41 359.00 371.00 C 358.58 356.59 360.08 344.56 359.00 329.00 C 357.92 313.44 372.46 323.35 381.23 328.77 C 389.99 334.19 398.77 338.28 407.70 343.31 C 416.62 348.33 425.61 353.63 434.70 358.30 C 443.78 362.98 452.29 367.88 461.25 372.75 C 470.20 377.62 479.49 382.54 488.23 387.77 C 496.97 393.00 505.85 397.29 514.70 402.31 C 523.54 407.32 532.87 412.33 541.70 417.31 C 550.52 422.28 558.67 428.15 566.75 434.25 C 574.84 440.35 581.30 446.21 587.77 454.23 C 594.24 462.25 600.11 469.80 604.92 479.08 C 609.73 488.36 615.53 496.29 617.98 507.02 C 620.42 517.76 624.85 529.47 626.00 541.00 C 627.14 552.53 627.02 567.78 625.00 579.00 C 622.99 590.22 619.35 601.19 615.23 611.23 C 611.11 621.27 606.78 630.18 600.70 638.70 C 594.61 647.22 588.79 652.88 581.25 660.25 C 573.71 667.62 566.95 673.50 557.77 678.77 C 548.59 684.04 540.54 688.25 529.92 691.92 C 519.31 695.60 508.01 698.30 495.98 699.98 C 483.94 701.65 469.16 700.88 456.00 701.00 C 442.84 701.12 427.53 700.94 414.00 701.00 C 400.47 701.06 386.71 700.97 373.00 701.00 C 359.29 701.03 344.80 700.98 331.00 701.00 C 317.20 701.02 302.76 700.97 289.00 701.00 C 275.24 701.03 261.66 700.94 248.00 701.00 C 234.34 701.06 219.46 700.88 206.00 701.00 C 192.54 701.12 177.97 700.73 165.00 701.00 C 152.03 701.27 137.73 700.50 126.33 697.67 C 114.92 694.85 106.80 691.15 97.30 685.70 C 87.81 680.24 82.08 674.40 74.25 666.75 C 66.42 659.10 61.76 651.92 56.69 642.31 C 51.63 632.69 48.93 622.40 46.67 611.33 C 44.41 600.26 45.34 584.73 47.93 573.93 C 50.52 563.13 53.50 553.35 59.25 544.25 C 65.01 535.16 69.54 528.03 77.75 520.75 C 85.97 513.47 91.33 508.43 101.23 503.23 C 111.13 498.02 121.53 494.94 133.22 493.22 C 144.91 491.50 160.51 491.00 173.00 491.00 Z"/>
</g>
<g fill="#FFBF4D" fill-opacity="0.08" stroke="None">
<path d="
M 393.00 46.00 
C 401.33 46.00 409.67 46.00 418.00 46.00
C 417.96 46.00 418.00 45.00 418.00 45.00
C 409.64 45.00 400.66 45.26 393.00 46.00 Z"/>
</g>
<g fill="#FE8080" fill-opacity="0.01" stroke="None">
<path d="
M 418.00 46.00 
C 439.33 46.00 460.67 46.00 482.00 46.00
C 481.96 46.00 482.00 45.00 482.00 45.00
C 460.67 45.00 439.33 45.00 418.00 45.00
C 418.00 45.00 417.96 46.00 418.00 46.00 Z"/>
</g>
<g fill="#FFBE50" fill-opacity="0.12" stroke="None">
<path d="
M 482.00 46.00 
C 486.33 46.00 490.67 46.00 495.00 46.00
C 491.34 45.65 486.41 45.00 482.00 45.00
C 482.00 45.00 481.96 46.00 482.00 46.00 Z"/>
</g>
<g fill="#000000" fill-opacity="0.00" stroke="None">
<path d="
M 495.00 46.00 
C 490.67 46.00 486.33 46.00 482.00 46.00
C 460.67 46.00 439.33 46.00 418.00 46.00
C 409.67 46.00 401.33 46.00 393.00 46.00
C 379.67 46.00 367.33 46.01 355.00 46.00 C 342.67 45.99 330.32 46.02 318.00 46.00 C 305.68 45.98 293.31 46.04 281.00 46.00 C 268.69 45.96 255.18 46.09 243.00 46.00 C 230.82 45.91 217.81 46.22 206.00 46.00 C 194.19 45.78 181.33 45.98 170.67 47.67 C 160.01 49.36 150.43 51.54 141.07 55.07 C 131.72 58.61 123.25 62.04 115.25 67.25 C 107.24 72.45 101.17 76.95 94.25 83.25 C 87.32 89.55 82.23 95.18 76.25 102.25 C 70.26 109.32 66.12 116.26 61.77 124.77 C 57.42 133.28 53.35 142.23 50.93 151.93 C 48.50 161.62 45.55 172.45 45.00 183.00 C 44.45 193.55 46.02 207.12 48.01 216.99 C 50.00 226.86 52.62 236.82 56.22 245.78 C 59.83 254.73 64.43 262.89 69.08 270.92 C 73.73 278.95 78.74 285.41 84.75 292.25 C 90.75 299.10 96.04 305.21 103.30 310.70 C 110.57 316.18 118.09 321.40 125.77 326.23 C 133.45 331.06 141.31 335.41 149.30 339.70 C 157.30 343.98 165.21 348.55 173.30 352.70 C 181.40 356.84 188.83 361.82 196.92 366.08 C 205.02 370.33 213.41 375.06 221.31 379.69 C 229.20 384.33 237.37 388.20 245.30 392.70 C 253.24 397.19 261.08 401.40 268.92 406.08 C 276.77 410.76 285.14 414.09 292.92 419.08 C 300.70 424.07 313.88 433.07 313.00 419.00 C 312.12 404.93 313.31 395.04 313.00 382.00 C 312.69 368.96 312.96 357.48 313.00 345.00 C 313.04 332.52 312.57 320.01 313.00 308.00 C 313.43 295.99 311.47 282.05 314.07 271.07 C 316.68 260.09 325.25 256.79 336.00 256.00 C 346.75 255.21 361.32 256.35 373.00 256.00 C 384.68 255.65 398.99 256.17 411.00 256.00 C 423.01 255.83 435.98 256.10 448.00 256.00 C 460.02 255.90 473.17 256.08 485.00 256.00 C 496.83 255.92 510.70 256.13 522.00 256.00 C 533.30 255.87 544.24 253.12 553.98 249.98 C 563.71 246.83 571.22 243.59 579.25 238.25 C 587.29 232.92 592.55 228.21 599.25 221.25 C 605.95 214.29 609.94 208.19 614.70 199.69 C 619.45 191.20 622.00 181.35 624.67 171.67 C 627.34 161.99 627.18 148.07 626.00 138.00 C 624.82 127.93 622.39 117.71 617.92 109.08 C 613.46 100.44 609.80 93.54 603.75 86.25 C 597.70 78.96 592.35 73.00 584.75 67.25 C 577.14 61.51 570.33 57.75 561.22 53.78 C 552.12 49.80 541.85 47.81 531.22 46.78 C 520.60 45.74 506.26 46.00 495.00 46.00 Z"/>
</g>
<g fill="#FEBF51" fill-opacity="0.51" stroke="None">
<path d="
M 672.00 156.00 
L 672.00 143.00
C 670.29 146.20 670.42 152.73 672.00 156.00 Z"/>
</g>
<g fill="#000000" fill-opacity="0.00" stroke="None">
<path d="
M 672.00 552.00 
L 672.00 160.00
C 668.95 184.38 660.70 210.16 646.92 230.92 C 633.14 251.68 622.31 266.42 599.23 278.23 C 576.15 290.04 553.08 300.07 525.00 300.00 C 496.92 299.93 459.86 298.40 432.00 302.00
C 454.02 321.82 483.18 332.77 508.92 348.08 C 534.67 363.38 561.38 375.54 586.25 392.75 C 611.13 409.95 629.30 430.85 644.70 457.31 C 660.09 483.76 670.22 521.05 672.00 552.00 Z"/>
</g>
<g fill="#FEBF51" fill-opacity="0.60" stroke="None">
<path d="
M 0.00 201.00 
C 1.69 195.81 1.63 187.26 0.00 182.00
L 0.00 201.00 Z"/>
</g>
<g fill="#000000" fill-opacity="0.00" stroke="None">
<path d="
M 0.00 589.00 
C 2.59 564.17 9.72 536.94 23.75 515.75 C 37.77 494.56 50.51 482.11 72.75 468.75 C 94.99 455.40 119.81 446.83 148.00 447.00 C 176.19 447.17 212.43 447.53 241.00 446.00
C 225.87 428.93 201.72 420.33 181.69 408.31 C 161.67 396.28 139.74 386.45 119.70 374.30 C 99.65 362.16 79.23 352.16 62.25 334.75 C 45.27 317.34 32.87 300.84 21.77 279.23 C 10.67 257.62 3.09 229.19 0.00 205.00
L 0.00 589.00 Z"/>
</g>
<g fill="#000000" fill-opacity="0.00" stroke="None">
<path d="
M 188.00 490.00 
C 183.61 490.42 178.07 491.00 173.00 491.00
C 160.51 491.00 144.91 491.50 133.22 493.22 C 121.53 494.94 111.13 498.02 101.23 503.23 C 91.33 508.43 85.97 513.47 77.75 520.75 C 69.54 528.03 65.01 535.16 59.25 544.25 C 53.50 553.35 50.52 563.13 47.93 573.93 C 45.34 584.73 44.41 600.26 46.67 611.33 C 48.93 622.40 51.63 632.69 56.69 642.31 C 61.76 651.92 66.42 659.10 74.25 666.75 C 82.08 674.40 87.81 680.24 97.30 685.70 C 106.80 691.15 114.92 694.85 126.33 697.67 C 137.73 700.50 152.03 701.27 165.00 701.00 C 177.97 700.73 192.54 701.12 206.00 701.00 C 219.46 700.88 234.34 701.06 248.00 701.00 C 261.66 700.94 275.24 701.03 289.00 701.00 C 302.76 700.97 317.20 701.02 331.00 701.00 C 344.80 700.98 359.29 701.03 373.00 701.00 C 386.71 700.97 400.47 701.06 414.00 701.00 C 427.53 700.94 442.84 701.12 456.00 701.00 C 469.16 700.88 483.94 701.65 495.98 699.98 C 508.01 698.30 519.31 695.60 529.92 691.92 C 540.54 688.25 548.59 684.04 557.77 678.77 C 566.95 673.50 573.71 667.62 581.25 660.25 C 588.79 652.88 594.61 647.22 600.70 638.70 C 606.78 630.18 611.11 621.27 615.23 611.23 C 619.35 601.19 622.99 590.22 625.00 579.00 C 627.02 567.78 627.14 552.53 626.00 541.00 C 624.85 529.47 620.42 517.76 617.98 507.02 C 615.53 496.29 609.73 488.36 604.92 479.08 C 600.11 469.80 594.24 462.25 587.77 454.23 C 581.30 446.21 574.84 440.35 566.75 434.25 C 558.67 428.15 550.52 422.28 541.70 417.31 C 532.87 412.33 523.54 407.32 514.70 402.31 C 505.85 397.29 496.97 393.00 488.23 387.77 C 479.49 382.54 470.20 377.62 461.25 372.75 C 452.29 367.88 443.78 362.98 434.70 358.30 C 425.61 353.63 416.62 348.33 407.70 343.31 C 398.77 338.28 389.99 334.19 381.23 328.77 C 372.46 323.35 357.92 313.44 359.00 329.00 C 360.08 344.56 358.58 356.59 359.00 371.00 C 359.42 385.41 358.99 398.43 359.00 412.00 C 359.01 425.57 359.37 441.38 359.00 454.00 C 358.63 466.62 361.63 479.67 350.69 486.70 C 339.76 493.72 324.98 488.94 312.00 490.00 C 299.02 491.06 284.44 489.55 271.00 490.00 C 257.56 490.45 242.60 489.82 229.00 490.00 C 215.40 490.18 201.62 490.00 188.00 490.00 Z"/>
</g>
<g fill="#FE8080" fill-opacity="0.01" stroke="None">
<path d="
M 173.00 491.00 
C 178.07 491.00 183.61 490.42 188.00 490.00
C 182.93 490.00 177.39 490.58 173.00 491.00 Z"/>
</g>
<g fill="#000000" fill-opacity="0.00" stroke="None">
<path d="
M 476.00 746.00 
C 476.04 746.00 476.00 747.00 476.00 747.00
L 672.00 747.00
L 672.00 558.00
C 669.63 608.84 651.75 655.69 614.25 692.25 C 576.74 728.80 528.21 746.00 476.00 746.00 Z"/>
</g>
<g fill="#000000" fill-opacity="0.00" stroke="None">
<path d="
M 0.00 747.00 
L 206.00 747.00
C 206.00 746.50 206.00 746.00 206.00 746.00
C 172.07 746.00 127.47 748.41 97.69 736.31 C 67.92 724.20 50.13 710.54 30.30 685.70 C 10.48 660.86 2.94 628.68 0.00 598.00
L 0.00 747.00 Z"/>
</g>
<g fill="#FE8080" fill-opacity="0.01" stroke="None">
<path d="
M 206.00 747.00 
L 238.00 747.00
C 238.00 746.50 238.00 746.00 238.00 746.00
C 227.33 746.00 216.67 746.00 206.00 746.00
C 206.00 746.00 206.00 746.50 206.00 747.00 Z"/>
</g>
<g fill="#FFBC52" fill-opacity="0.15" stroke="None">
<path d="
M 238.00 747.00 
L 457.00 747.00
C 457.00 746.50 457.00 746.00 457.00 746.00
C 384.00 746.00 311.00 746.00 238.00 746.00
C 238.00 746.00 238.00 746.50 238.00 747.00 Z"/>
</g>
<g fill="#FE8080" fill-opacity="0.01" stroke="None">
<path d="
M 457.00 747.00 
L 476.00 747.00
C 476.00 747.00 476.04 746.00 476.00 746.00
C 469.67 746.00 463.33 746.00 457.00 746.00
C 457.00 746.00 457.00 746.50 457.00 747.00 Z"/>
</g>
</svg>