<svg xmlns="http://www.w3.org/2000/svg" viewBox="1.9508496522903442 2.0491507053375244 16 16.000001907348633"><g><path fill="#ffbe5a" fill-rule="evenodd" d="M12.586 4.586a2 2 0 1 1 2.828 2.828l-3 3a2 2 0 0 1-2.828 0 1 1 0 0 0-1.414 1.414 4 4 0 0 0 5.656 0l3-3a4 4 0 0 0-5.656-5.656l-1.5 1.5a1 1 0 1 0 1.414 1.414zm-5 5a2 2 0 0 1 2.828 0 1 1 0 1 0 1.414-1.414 4 4 0 0 0-5.656 0l-3 3a4 4 0 1 0 5.656 5.656l1.5-1.5a1 1 0 1 0-1.414-1.414l-1.5 1.5a2 2 0 1 1-2.828-2.828z" clip-rule="evenodd" opacity="1" data-original="#000000" class=""></path></g></svg>