<svg xmlns="http://www.w3.org/2000/svg" xmlns:v="https://svgstorm.com"
viewBox = "0 0 1050 525"
width="1050"
height="525">
<g fill="None" fill-opacity="0.0" stroke="#000000" stroke-opacity="0.00" stroke-width="0.3"><path d="
M 0.00 525.00 
L 1050.00 525.00
L 1050.00 0.00
L 0.00 0.00
L 0.00 525.00
M 365.00 30.00 
C 399.20 133.40 433.65 237.31 469.00 340.00
C 472.46 329.58 476.40 319.37 479.93 308.93 C 483.45 298.48 487.16 288.34 490.93 277.93 C 494.69 267.51 498.12 256.36 501.98 245.98 C 505.83 235.59 509.18 225.32 512.93 214.93 C 516.67 204.53 520.06 194.32 523.93 183.93 C 527.79 173.53 531.10 162.37 534.98 151.98 C 538.85 141.58 542.13 131.34 545.98 120.98 C 549.83 110.61 552.87 100.26 556.93 89.93 C 560.98 79.59 563.74 68.27 567.98 57.98 C 572.21 47.68 572.25 32.85 586.00 34.00 C 599.75 35.15 614.02 33.41 628.00 34.00 C 641.98 34.59 656.93 33.56 671.00 34.00
C 668.40 44.10 664.46 53.92 660.69 63.69 C 656.93 73.47 653.89 83.25 650.02 93.02 C 646.16 102.80 642.68 113.18 639.02 123.02 C 635.37 132.87 631.62 142.19 628.07 152.07 C 624.52 161.95 620.51 172.12 617.02 182.02 C 613.54 191.93 609.54 201.17 606.07 211.07 C 602.60 220.98 598.50 231.14 595.07 241.07 C 591.65 251.01 587.50 260.13 584.08 270.08 C 580.65 280.02 576.61 290.14 573.07 300.07 C 569.54 310.01 565.76 319.27 562.22 329.22 C 558.69 339.18 554.77 349.24 551.22 359.22 C 547.68 369.21 543.81 378.14 540.23 388.23 C 536.65 398.32 532.99 407.96 529.22 418.22 C 525.46 428.48 522.03 436.69 518.68 447.68 C 515.33 458.66 510.17 464.89 507.23 477.23 C 504.29 489.57 490.02 487.59 477.00 487.00 C 463.98 486.41 449.18 487.45 436.00 487.00
C 403.55 392.29 370.85 297.63 338.00 203.00
C 302.96 297.07 269.07 392.29 235.00 487.00
C 222.80 486.84 207.93 487.21 196.00 487.00 C 184.07 486.79 167.25 490.71 164.07 478.93 C 160.89 467.14 157.44 459.69 154.02 448.98 C 150.61 438.26 146.90 429.65 143.68 419.32 C 140.46 409.00 136.45 400.01 133.07 389.93 C 129.70 379.85 126.50 369.92 123.02 359.98 C 119.55 350.04 115.88 340.29 112.68 330.32 C 109.47 320.36 105.38 310.81 102.08 300.92 C 98.77 291.04 95.73 281.69 92.07 271.93 C 88.41 262.16 85.65 251.78 82.02 241.98 C 78.40 232.18 74.99 222.24 71.68 212.32 C 68.36 202.41 64.49 192.83 61.07 182.93 C 57.66 173.02 54.52 162.85 51.02 152.98 C 47.53 143.10 43.90 133.29 40.68 123.32 C 37.46 113.35 33.39 103.89 30.08 93.92 C 26.76 83.96 23.31 73.96 20.02 63.98 C 16.74 53.99 12.19 44.34 10.00 34.00
C 24.04 33.14 36.83 35.14 51.00 34.00 C 65.17 32.86 78.50 36.14 93.00 34.00 C 107.50 31.86 108.15 46.23 111.93 57.07 C 115.70 67.92 118.47 77.38 121.98 88.02 C 125.48 98.67 128.87 109.11 132.32 119.68 C 135.77 130.24 139.57 140.55 142.93 151.07 C 146.28 161.60 149.30 171.66 152.93 182.07 C 156.56 192.49 159.79 203.21 163.32 213.68 C 166.86 224.15 170.14 234.83 173.78 245.22 C 177.41 255.62 180.07 265.76 183.93 276.07 C 187.78 286.38 190.23 297.68 193.98 308.02 C 197.72 318.37 200.80 329.18 205.00 339.00
C 209.42 329.21 212.76 318.77 216.32 308.32 C 219.89 297.88 224.19 287.27 227.78 276.78 C 231.36 266.29 235.00 256.22 238.78 245.78 C 242.55 235.33 245.92 224.34 249.93 213.93 C 253.93 203.52 257.07 192.39 260.98 181.98 C 264.88 171.56 268.25 161.41 271.98 150.98 C 275.70 140.54 279.67 129.76 283.32 119.32 C 286.97 108.88 290.82 97.98 294.78 87.78 C 298.73 77.57 300.87 66.36 305.78 56.78 C 310.68 47.19 308.79 29.80 322.00 30.00 C 335.21 30.20 350.59 29.85 364.00 30.00
M 940.00 245.00 
C 965.98 250.47 988.82 262.59 1006.30 284.70 C 1023.78 306.81 1031.33 339.33 1029.00 368.00 C 1026.67 396.68 1018.90 422.23 998.25 443.25 C 977.59 464.27 959.53 473.83 930.33 481.33 C 901.13 488.83 863.03 487.05 830.00 487.00 C 796.97 486.95 756.69 487.04 723.00 487.00
C 722.99 336.00 723.00 185.00 723.00 34.00
C 763.31 34.07 814.09 33.47 853.00 35.00 C 891.91 36.53 922.35 43.64 951.75 67.25 C 981.15 90.86 988.15 126.88 988.00 162.00 C 987.85 197.12 970.07 227.40 940.00 245.00 Z"/>
</g>
<g fill="None" fill-opacity="0.0" stroke="#FFBE5A" stroke-opacity="0.99" stroke-width="0.3"><path d="
M 364.00 30.00 
C 350.59 29.85 335.21 30.20 322.00 30.00 C 308.79 29.80 310.68 47.19 305.78 56.78 C 300.87 66.36 298.73 77.57 294.78 87.78 C 290.82 97.98 286.97 108.88 283.32 119.32 C 279.67 129.76 275.70 140.54 271.98 150.98 C 268.25 161.41 264.88 171.56 260.98 181.98 C 257.07 192.39 253.93 203.52 249.93 213.93 C 245.92 224.34 242.55 235.33 238.78 245.78 C 235.00 256.22 231.36 266.29 227.78 276.78 C 224.19 287.27 219.89 297.88 216.32 308.32 C 212.76 318.77 209.42 329.21 205.00 339.00
C 200.80 329.18 197.72 318.37 193.98 308.02 C 190.23 297.68 187.78 286.38 183.93 276.07 C 180.07 265.76 177.41 255.62 173.78 245.22 C 170.14 234.83 166.86 224.15 163.32 213.68 C 159.79 203.21 156.56 192.49 152.93 182.07 C 149.30 171.66 146.28 161.60 142.93 151.07 C 139.57 140.55 135.77 130.24 132.32 119.68 C 128.87 109.11 125.48 98.67 121.98 88.02 C 118.47 77.38 115.70 67.92 111.93 57.07 C 108.15 46.23 107.50 31.86 93.00 34.00 C 78.50 36.14 65.17 32.86 51.00 34.00 C 36.83 35.14 24.04 33.14 10.00 34.00
C 12.19 44.34 16.74 53.99 20.02 63.98 C 23.31 73.96 26.76 83.96 30.08 93.92 C 33.39 103.89 37.46 113.35 40.68 123.32 C 43.90 133.29 47.53 143.10 51.02 152.98 C 54.52 162.85 57.66 173.02 61.07 182.93 C 64.49 192.83 68.36 202.41 71.68 212.32 C 74.99 222.24 78.40 232.18 82.02 241.98 C 85.65 251.78 88.41 262.16 92.07 271.93 C 95.73 281.69 98.77 291.04 102.08 300.92 C 105.38 310.81 109.47 320.36 112.68 330.32 C 115.88 340.29 119.55 350.04 123.02 359.98 C 126.50 369.92 129.70 379.85 133.07 389.93 C 136.45 400.01 140.46 409.00 143.68 419.32 C 146.90 429.65 150.61 438.26 154.02 448.98 C 157.44 459.69 160.89 467.14 164.07 478.93 C 167.25 490.71 184.07 486.79 196.00 487.00 C 207.93 487.21 222.80 486.84 235.00 487.00
C 269.07 392.29 302.96 297.07 338.00 203.00
C 370.85 297.63 403.55 392.29 436.00 487.00
C 449.18 487.45 463.98 486.41 477.00 487.00 C 490.02 487.59 504.29 489.57 507.23 477.23 C 510.17 464.89 515.33 458.66 518.68 447.68 C 522.03 436.69 525.46 428.48 529.22 418.22 C 532.99 407.96 536.65 398.32 540.23 388.23 C 543.81 378.14 547.68 369.21 551.22 359.22 C 554.77 349.24 558.69 339.18 562.22 329.22 C 565.76 319.27 569.54 310.01 573.07 300.07 C 576.61 290.14 580.65 280.02 584.08 270.08 C 587.50 260.13 591.65 251.01 595.07 241.07 C 598.50 231.14 602.60 220.98 606.07 211.07 C 609.54 201.17 613.54 191.93 617.02 182.02 C 620.51 172.12 624.52 161.95 628.07 152.07 C 631.62 142.19 635.37 132.87 639.02 123.02 C 642.68 113.18 646.16 102.80 650.02 93.02 C 653.89 83.25 656.93 73.47 660.69 63.69 C 664.46 53.92 668.40 44.10 671.00 34.00
C 656.93 33.56 641.98 34.59 628.00 34.00 C 614.02 33.41 599.75 35.15 586.00 34.00 C 572.25 32.85 572.21 47.68 567.98 57.98 C 563.74 68.27 560.98 79.59 556.93 89.93 C 552.87 100.26 549.83 110.61 545.98 120.98 C 542.13 131.34 538.85 141.58 534.98 151.98 C 531.10 162.37 527.79 173.53 523.93 183.93 C 520.06 194.32 516.67 204.53 512.93 214.93 C 509.18 225.32 505.83 235.59 501.98 245.98 C 498.12 256.36 494.69 267.51 490.93 277.93 C 487.16 288.34 483.45 298.48 479.93 308.93 C 476.40 319.37 472.46 329.58 469.00 340.00
C 433.65 237.31 399.20 133.40 365.00 30.00 Z"/>
</g>
<g fill="None" fill-opacity="0.0" stroke="#FFBE5A" stroke-opacity="0.99" stroke-width="0.3"><path d="
M 940.00 245.00 
C 970.07 227.40 987.85 197.12 988.00 162.00 C 988.15 126.88 981.15 90.86 951.75 67.25 C 922.35 43.64 891.91 36.53 853.00 35.00 C 814.09 33.47 763.31 34.07 723.00 34.00
C 723.00 185.00 722.99 336.00 723.00 487.00
C 756.69 487.04 796.97 486.95 830.00 487.00 C 863.03 487.05 901.13 488.83 930.33 481.33 C 959.53 473.83 977.59 464.27 998.25 443.25 C 1018.90 422.23 1026.67 396.68 1029.00 368.00 C 1031.33 339.33 1023.78 306.81 1006.30 284.70 C 988.82 262.59 965.98 250.47 940.00 245.00
M 812.00 222.00 
C 812.00 183.67 812.00 145.33 812.00 107.00
C 853.67 101.43 905.34 114.86 905.00 164.00 C 904.66 213.14 854.84 228.54 812.00 222.00
M 812.00 415.00 
C 812.00 373.67 812.00 332.33 812.00 291.00
C 845.87 292.00 892.22 285.96 918.70 308.30 C 945.18 330.64 944.25 373.72 918.25 396.25 C 892.25 418.78 845.92 414.58 812.00 415.00 Z"/>
</g>
<g fill="None" fill-opacity="0.0" stroke="#000000" stroke-opacity="0.00" stroke-width="0.3"><path d="
M 812.00 222.00 
C 854.84 228.54 904.66 213.14 905.00 164.00 C 905.34 114.86 853.67 101.43 812.00 107.00
C 812.00 145.33 812.00 183.67 812.00 222.00 Z"/>
</g>
<g fill="None" fill-opacity="0.0" stroke="#000000" stroke-opacity="0.00" stroke-width="0.3"><path d="
M 812.00 415.00 
C 845.92 414.58 892.25 418.78 918.25 396.25 C 944.25 373.72 945.18 330.64 918.70 308.30 C 892.22 285.96 845.87 292.00 812.00 291.00
C 812.00 332.33 812.00 373.67 812.00 415.00 Z"/>
</g>
<g fill="#000000" fill-opacity="0.00" stroke="None">
<path d="
M 0.00 525.00 
L 1050.00 525.00
L 1050.00 0.00
L 0.00 0.00
L 0.00 525.00
M 365.00 30.00 
C 399.20 133.40 433.65 237.31 469.00 340.00
C 472.46 329.58 476.40 319.37 479.93 308.93 C 483.45 298.48 487.16 288.34 490.93 277.93 C 494.69 267.51 498.12 256.36 501.98 245.98 C 505.83 235.59 509.18 225.32 512.93 214.93 C 516.67 204.53 520.06 194.32 523.93 183.93 C 527.79 173.53 531.10 162.37 534.98 151.98 C 538.85 141.58 542.13 131.34 545.98 120.98 C 549.83 110.61 552.87 100.26 556.93 89.93 C 560.98 79.59 563.74 68.27 567.98 57.98 C 572.21 47.68 572.25 32.85 586.00 34.00 C 599.75 35.15 614.02 33.41 628.00 34.00 C 641.98 34.59 656.93 33.56 671.00 34.00
C 668.40 44.10 664.46 53.92 660.69 63.69 C 656.93 73.47 653.89 83.25 650.02 93.02 C 646.16 102.80 642.68 113.18 639.02 123.02 C 635.37 132.87 631.62 142.19 628.07 152.07 C 624.52 161.95 620.51 172.12 617.02 182.02 C 613.54 191.93 609.54 201.17 606.07 211.07 C 602.60 220.98 598.50 231.14 595.07 241.07 C 591.65 251.01 587.50 260.13 584.08 270.08 C 580.65 280.02 576.61 290.14 573.07 300.07 C 569.54 310.01 565.76 319.27 562.22 329.22 C 558.69 339.18 554.77 349.24 551.22 359.22 C 547.68 369.21 543.81 378.14 540.23 388.23 C 536.65 398.32 532.99 407.96 529.22 418.22 C 525.46 428.48 522.03 436.69 518.68 447.68 C 515.33 458.66 510.17 464.89 507.23 477.23 C 504.29 489.57 490.02 487.59 477.00 487.00 C 463.98 486.41 449.18 487.45 436.00 487.00
C 403.55 392.29 370.85 297.63 338.00 203.00
C 302.96 297.07 269.07 392.29 235.00 487.00
C 222.80 486.84 207.93 487.21 196.00 487.00 C 184.07 486.79 167.25 490.71 164.07 478.93 C 160.89 467.14 157.44 459.69 154.02 448.98 C 150.61 438.26 146.90 429.65 143.68 419.32 C 140.46 409.00 136.45 400.01 133.07 389.93 C 129.70 379.85 126.50 369.92 123.02 359.98 C 119.55 350.04 115.88 340.29 112.68 330.32 C 109.47 320.36 105.38 310.81 102.08 300.92 C 98.77 291.04 95.73 281.69 92.07 271.93 C 88.41 262.16 85.65 251.78 82.02 241.98 C 78.40 232.18 74.99 222.24 71.68 212.32 C 68.36 202.41 64.49 192.83 61.07 182.93 C 57.66 173.02 54.52 162.85 51.02 152.98 C 47.53 143.10 43.90 133.29 40.68 123.32 C 37.46 113.35 33.39 103.89 30.08 93.92 C 26.76 83.96 23.31 73.96 20.02 63.98 C 16.74 53.99 12.19 44.34 10.00 34.00
C 24.04 33.14 36.83 35.14 51.00 34.00 C 65.17 32.86 78.50 36.14 93.00 34.00 C 107.50 31.86 108.15 46.23 111.93 57.07 C 115.70 67.92 118.47 77.38 121.98 88.02 C 125.48 98.67 128.87 109.11 132.32 119.68 C 135.77 130.24 139.57 140.55 142.93 151.07 C 146.28 161.60 149.30 171.66 152.93 182.07 C 156.56 192.49 159.79 203.21 163.32 213.68 C 166.86 224.15 170.14 234.83 173.78 245.22 C 177.41 255.62 180.07 265.76 183.93 276.07 C 187.78 286.38 190.23 297.68 193.98 308.02 C 197.72 318.37 200.80 329.18 205.00 339.00
C 209.42 329.21 212.76 318.77 216.32 308.32 C 219.89 297.88 224.19 287.27 227.78 276.78 C 231.36 266.29 235.00 256.22 238.78 245.78 C 242.55 235.33 245.92 224.34 249.93 213.93 C 253.93 203.52 257.07 192.39 260.98 181.98 C 264.88 171.56 268.25 161.41 271.98 150.98 C 275.70 140.54 279.67 129.76 283.32 119.32 C 286.97 108.88 290.82 97.98 294.78 87.78 C 298.73 77.57 300.87 66.36 305.78 56.78 C 310.68 47.19 308.79 29.80 322.00 30.00 C 335.21 30.20 350.59 29.85 364.00 30.00
M 940.00 245.00 
C 965.98 250.47 988.82 262.59 1006.30 284.70 C 1023.78 306.81 1031.33 339.33 1029.00 368.00 C 1026.67 396.68 1018.90 422.23 998.25 443.25 C 977.59 464.27 959.53 473.83 930.33 481.33 C 901.13 488.83 863.03 487.05 830.00 487.00 C 796.97 486.95 756.69 487.04 723.00 487.00
C 722.99 336.00 723.00 185.00 723.00 34.00
C 763.31 34.07 814.09 33.47 853.00 35.00 C 891.91 36.53 922.35 43.64 951.75 67.25 C 981.15 90.86 988.15 126.88 988.00 162.00 C 987.85 197.12 970.07 227.40 940.00 245.00 Z"/>
</g>
<g fill="#FFBE5A" fill-opacity="0.99" stroke="None">
<path d="
M 364.00 30.00 
C 350.59 29.85 335.21 30.20 322.00 30.00 C 308.79 29.80 310.68 47.19 305.78 56.78 C 300.87 66.36 298.73 77.57 294.78 87.78 C 290.82 97.98 286.97 108.88 283.32 119.32 C 279.67 129.76 275.70 140.54 271.98 150.98 C 268.25 161.41 264.88 171.56 260.98 181.98 C 257.07 192.39 253.93 203.52 249.93 213.93 C 245.92 224.34 242.55 235.33 238.78 245.78 C 235.00 256.22 231.36 266.29 227.78 276.78 C 224.19 287.27 219.89 297.88 216.32 308.32 C 212.76 318.77 209.42 329.21 205.00 339.00
C 200.80 329.18 197.72 318.37 193.98 308.02 C 190.23 297.68 187.78 286.38 183.93 276.07 C 180.07 265.76 177.41 255.62 173.78 245.22 C 170.14 234.83 166.86 224.15 163.32 213.68 C 159.79 203.21 156.56 192.49 152.93 182.07 C 149.30 171.66 146.28 161.60 142.93 151.07 C 139.57 140.55 135.77 130.24 132.32 119.68 C 128.87 109.11 125.48 98.67 121.98 88.02 C 118.47 77.38 115.70 67.92 111.93 57.07 C 108.15 46.23 107.50 31.86 93.00 34.00 C 78.50 36.14 65.17 32.86 51.00 34.00 C 36.83 35.14 24.04 33.14 10.00 34.00
C 12.19 44.34 16.74 53.99 20.02 63.98 C 23.31 73.96 26.76 83.96 30.08 93.92 C 33.39 103.89 37.46 113.35 40.68 123.32 C 43.90 133.29 47.53 143.10 51.02 152.98 C 54.52 162.85 57.66 173.02 61.07 182.93 C 64.49 192.83 68.36 202.41 71.68 212.32 C 74.99 222.24 78.40 232.18 82.02 241.98 C 85.65 251.78 88.41 262.16 92.07 271.93 C 95.73 281.69 98.77 291.04 102.08 300.92 C 105.38 310.81 109.47 320.36 112.68 330.32 C 115.88 340.29 119.55 350.04 123.02 359.98 C 126.50 369.92 129.70 379.85 133.07 389.93 C 136.45 400.01 140.46 409.00 143.68 419.32 C 146.90 429.65 150.61 438.26 154.02 448.98 C 157.44 459.69 160.89 467.14 164.07 478.93 C 167.25 490.71 184.07 486.79 196.00 487.00 C 207.93 487.21 222.80 486.84 235.00 487.00
C 269.07 392.29 302.96 297.07 338.00 203.00
C 370.85 297.63 403.55 392.29 436.00 487.00
C 449.18 487.45 463.98 486.41 477.00 487.00 C 490.02 487.59 504.29 489.57 507.23 477.23 C 510.17 464.89 515.33 458.66 518.68 447.68 C 522.03 436.69 525.46 428.48 529.22 418.22 C 532.99 407.96 536.65 398.32 540.23 388.23 C 543.81 378.14 547.68 369.21 551.22 359.22 C 554.77 349.24 558.69 339.18 562.22 329.22 C 565.76 319.27 569.54 310.01 573.07 300.07 C 576.61 290.14 580.65 280.02 584.08 270.08 C 587.50 260.13 591.65 251.01 595.07 241.07 C 598.50 231.14 602.60 220.98 606.07 211.07 C 609.54 201.17 613.54 191.93 617.02 182.02 C 620.51 172.12 624.52 161.95 628.07 152.07 C 631.62 142.19 635.37 132.87 639.02 123.02 C 642.68 113.18 646.16 102.80 650.02 93.02 C 653.89 83.25 656.93 73.47 660.69 63.69 C 664.46 53.92 668.40 44.10 671.00 34.00
C 656.93 33.56 641.98 34.59 628.00 34.00 C 614.02 33.41 599.75 35.15 586.00 34.00 C 572.25 32.85 572.21 47.68 567.98 57.98 C 563.74 68.27 560.98 79.59 556.93 89.93 C 552.87 100.26 549.83 110.61 545.98 120.98 C 542.13 131.34 538.85 141.58 534.98 151.98 C 531.10 162.37 527.79 173.53 523.93 183.93 C 520.06 194.32 516.67 204.53 512.93 214.93 C 509.18 225.32 505.83 235.59 501.98 245.98 C 498.12 256.36 494.69 267.51 490.93 277.93 C 487.16 288.34 483.45 298.48 479.93 308.93 C 476.40 319.37 472.46 329.58 469.00 340.00
C 433.65 237.31 399.20 133.40 365.00 30.00 Z"/>
</g>
<g fill="#FFBE5A" fill-opacity="0.99" stroke="None">
<path d="
M 940.00 245.00 
C 970.07 227.40 987.85 197.12 988.00 162.00 C 988.15 126.88 981.15 90.86 951.75 67.25 C 922.35 43.64 891.91 36.53 853.00 35.00 C 814.09 33.47 763.31 34.07 723.00 34.00
C 723.00 185.00 722.99 336.00 723.00 487.00
C 756.69 487.04 796.97 486.95 830.00 487.00 C 863.03 487.05 901.13 488.83 930.33 481.33 C 959.53 473.83 977.59 464.27 998.25 443.25 C 1018.90 422.23 1026.67 396.68 1029.00 368.00 C 1031.33 339.33 1023.78 306.81 1006.30 284.70 C 988.82 262.59 965.98 250.47 940.00 245.00
M 812.00 222.00 
C 812.00 183.67 812.00 145.33 812.00 107.00
C 853.67 101.43 905.34 114.86 905.00 164.00 C 904.66 213.14 854.84 228.54 812.00 222.00
M 812.00 415.00 
C 812.00 373.67 812.00 332.33 812.00 291.00
C 845.87 292.00 892.22 285.96 918.70 308.30 C 945.18 330.64 944.25 373.72 918.25 396.25 C 892.25 418.78 845.92 414.58 812.00 415.00 Z"/>
</g>
<g fill="#000000" fill-opacity="0.00" stroke="None">
<path d="
M 812.00 222.00 
C 854.84 228.54 904.66 213.14 905.00 164.00 C 905.34 114.86 853.67 101.43 812.00 107.00
C 812.00 145.33 812.00 183.67 812.00 222.00 Z"/>
</g>
<g fill="#000000" fill-opacity="0.00" stroke="None">
<path d="
M 812.00 415.00 
C 845.92 414.58 892.25 418.78 918.25 396.25 C 944.25 373.72 945.18 330.64 918.70 308.30 C 892.22 285.96 845.87 292.00 812.00 291.00
C 812.00 332.33 812.00 373.67 812.00 415.00 Z"/>
</g>
</svg>